<svg width="264" height="264" viewBox="0 0 264 264" fill="none" xmlns="http://www.w3.org/2000/svg">
<path d="M11.25 0.749023H0.75V11.249H11.25V0.749023Z" fill="#7C1A78"/>
<path d="M21.75 0.749023H11.25V11.249H21.75V0.749023Z" fill="#7C1A78"/>
<path d="M32.25 0.749023H21.75V11.249H32.25V0.749023Z" fill="#7C1A78"/>
<path d="M42.75 0.749023H32.25V11.249H42.75V0.749023Z" fill="#7C1A78"/>
<path d="M53.25 0.749023H42.75V11.249H53.25V0.749023Z" fill="#7C1A78"/>
<path d="M63.75 0.749023H53.25V11.249H63.75V0.749023Z" fill="#7C1A78"/>
<path d="M74.25 0.749023H63.75V11.249H74.25V0.749023Z" fill="#7C1A78"/>
<path d="M95.25 0.749023H84.75V11.249H95.25V0.749023Z" fill="#7C1A78"/>
<path d="M126.75 0.749023H116.25V11.249H126.75V0.749023Z" fill="#7C1A78"/>
<path d="M158.25 0.749023H147.75V11.249H158.25V0.749023Z" fill="#7C1A78"/>
<path d="M179.25 0.749023H168.75V11.249H179.25V0.749023Z" fill="#7C1A78"/>
<path d="M200.25 0.749023H189.75V11.249H200.25V0.749023Z" fill="#7C1A78"/>
<path d="M210.75 0.749023H200.25V11.249H210.75V0.749023Z" fill="#7C1A78"/>
<path d="M221.25 0.749023H210.75V11.249H221.25V0.749023Z" fill="#7C1A78"/>
<path d="M231.75 0.749023H221.25V11.249H231.75V0.749023Z" fill="#7C1A78"/>
<path d="M242.25 0.749023H231.75V11.249H242.25V0.749023Z" fill="#7C1A78"/>
<path d="M252.75 0.749023H242.25V11.249H252.75V0.749023Z" fill="#7C1A78"/>
<path d="M263.25 0.749023H252.75V11.249H263.25V0.749023Z" fill="#7C1A78"/>
<path d="M11.25 11.249H0.75V21.749H11.25V11.249Z" fill="#7C1A78"/>
<path d="M74.25 11.249H63.75L63.75 21.749H74.25V11.249Z" fill="#7C1A78"/>
<path d="M105.75 11.249H95.25V21.749H105.75V11.249Z" fill="#7C1A78"/>
<path d="M116.25 11.249H105.75V21.749H116.25V11.249Z" fill="#7C1A78"/>
<path d="M147.75 11.249H137.25V21.749H147.75V11.249Z" fill="#7C1A78"/>
<path d="M158.25 11.249H147.75V21.749H158.25V11.249Z" fill="#7C1A78"/>
<path d="M179.25 11.249H168.75V21.749H179.25V11.249Z" fill="#7C1A78"/>
<path d="M200.25 11.249H189.75V21.749H200.25V11.249Z" fill="#7C1A78"/>
<path d="M263.25 11.249H252.75V21.749H263.25V11.249Z" fill="#7C1A78"/>
<path d="M11.25 21.749H0.75V32.249H11.25V21.749Z" fill="#7C1A78"/>
<path d="M32.25 21.749H21.75V32.249H32.25V21.749Z" fill="#7C1A78"/>
<path d="M42.75 21.749H32.25V32.249H42.75V21.749Z" fill="#7C1A78"/>
<path d="M53.25 21.749H42.75V32.249H53.25V21.749Z" fill="#7C1A78"/>
<path d="M74.25 21.749H63.75V32.249H74.25V21.749Z" fill="#7C1A78"/>
<path d="M95.25 21.749H84.75V32.249H95.25V21.749Z" fill="#7C1A78"/>
<path d="M126.75 21.749H116.25V32.249H126.75V21.749Z" fill="#7C1A78"/>
<path d="M137.25 21.749H126.75V32.249H137.25V21.749Z" fill="#7C1A78"/>
<path d="M147.75 21.749H137.25V32.249H147.75V21.749Z" fill="#7C1A78"/>
<path d="M179.25 21.749H168.75V32.249H179.25V21.749Z" fill="#7C1A78"/>
<path d="M200.25 21.749H189.75V32.249H200.25V21.749Z" fill="#7C1A78"/>
<path d="M221.25 21.749H210.75V32.249H221.25V21.749Z" fill="#7C1A78"/>
<path d="M231.75 21.749H221.25V32.249H231.75V21.749Z" fill="#7C1A78"/>
<path d="M242.25 21.749H231.75V32.249H242.25V21.749Z" fill="#7C1A78"/>
<path d="M263.25 21.749H252.75V32.249H263.25V21.749Z" fill="#7C1A78"/>
<path d="M11.25 32.249H0.75V42.749H11.25V32.249Z" fill="#7C1A78"/>
<path d="M32.25 32.249H21.75V42.749H32.25V32.249Z" fill="#7C1A78"/>
<path d="M42.75 32.249H32.25V42.749H42.75V32.249Z" fill="#7C1A78"/>
<path d="M53.25 32.249H42.75V42.749H53.25V32.249Z" fill="#7C1A78"/>
<path d="M74.25 32.249H63.75V42.749H74.25V32.249Z" fill="#7C1A78"/>
<path d="M105.75 32.249H95.25V42.749H105.75V32.249Z" fill="#7C1A78"/>
<path d="M116.25 32.249H105.75V42.749H116.25V32.249Z" fill="#7C1A78"/>
<path d="M137.25 32.249H126.75V42.749H137.25V32.249Z" fill="#7C1A78"/>
<path d="M158.25 32.249H147.75V42.749H158.25V32.249Z" fill="#7C1A78"/>
<path d="M168.75 32.249H158.25V42.749H168.75V32.249Z" fill="#7C1A78"/>
<path d="M179.25 32.249H168.75V42.749H179.25V32.249Z" fill="#7C1A78"/>
<path d="M200.25 32.249H189.75V42.749H200.25V32.249Z" fill="#7C1A78"/>
<path d="M221.25 32.249H210.75V42.749H221.25V32.249Z" fill="#7C1A78"/>
<path d="M231.75 32.249H221.25V42.749H231.75V32.249Z" fill="#7C1A78"/>
<path d="M242.25 32.249H231.75V42.749H242.25V32.249Z" fill="#7C1A78"/>
<path d="M263.25 32.249H252.75V42.749H263.25V32.249Z" fill="#7C1A78"/>
<path d="M11.25 42.749H0.75V53.249H11.25V42.749Z" fill="#7C1A78"/>
<path d="M32.25 42.749H21.75V53.249H32.25V42.749Z" fill="#7C1A78"/>
<path d="M42.75 42.749H32.25V53.249H42.75V42.749Z" fill="#7C1A78"/>
<path d="M53.25 42.749H42.75V53.249H53.25V42.749Z" fill="#7C1A78"/>
<path d="M74.25 42.749H63.75V53.249H74.25V42.749Z" fill="#7C1A78"/>
<path d="M105.75 42.749H95.25V53.249H105.75V42.749Z" fill="#7C1A78"/>
<path d="M137.25 42.749H126.75V53.249H137.25V42.749Z" fill="#7C1A78"/>
<path d="M147.75 42.749H137.25V53.249H147.75V42.749Z" fill="#7C1A78"/>
<path d="M179.25 42.749H168.75V53.249H179.25V42.749Z" fill="#7C1A78"/>
<path d="M200.25 42.749H189.75V53.249H200.25V42.749Z" fill="#7C1A78"/>
<path d="M221.25 42.749H210.75V53.249H221.25V42.749Z" fill="#7C1A78"/>
<path d="M231.75 42.749H221.25V53.249H231.75V42.749Z" fill="#7C1A78"/>
<path d="M242.25 42.749H231.75V53.249H242.25V42.749Z" fill="#7C1A78"/>
<path d="M263.25 42.749H252.75V53.249H263.25V42.749Z" fill="#7C1A78"/>
<path d="M11.25 53.249H0.75V63.749H11.25V53.249Z" fill="#7C1A78"/>
<path d="M74.25 53.249H63.75V63.749H74.25V53.249Z" fill="#7C1A78"/>
<path d="M116.25 53.249H105.75V63.749H116.25V53.249Z" fill="#7C1A78"/>
<path d="M137.25 53.249H126.75V63.749H137.25V53.249Z" fill="#7C1A78"/>
<path d="M158.25 53.249H147.75V63.749H158.25V53.249Z" fill="#7C1A78"/>
<path d="M168.75 53.249H158.25V63.749H168.75V53.249Z" fill="#7C1A78"/>
<path d="M200.25 53.249H189.75V63.749H200.25V53.249Z" fill="#7C1A78"/>
<path d="M263.25 53.249H252.75V63.749H263.25V53.249Z" fill="#7C1A78"/>
<path d="M11.25 63.749H0.75V74.249H11.25V63.749Z" fill="#7C1A78"/>
<path d="M21.75 63.749L11.25 63.749V74.249H21.75V63.749Z" fill="#7C1A78"/>
<path d="M32.25 63.749H21.75V74.249H32.25V63.749Z" fill="#7C1A78"/>
<path d="M42.75 63.749H32.25V74.249H42.75V63.749Z" fill="#7C1A78"/>
<path d="M53.25 63.749H42.75V74.249H53.25V63.749Z" fill="#7C1A78"/>
<path d="M63.75 63.749L53.25 63.749V74.249H63.75L63.75 63.749Z" fill="#7C1A78"/>
<path d="M74.25 63.749H63.75L63.75 74.249H74.25V63.749Z" fill="#7C1A78"/>
<path d="M95.25 63.749H84.75V74.249H95.25V63.749Z" fill="#7C1A78"/>
<path d="M116.25 63.749H105.75V74.249H116.25V63.749Z" fill="#7C1A78"/>
<path d="M137.25 63.749H126.75V74.249H137.25V63.749Z" fill="#7C1A78"/>
<path d="M158.25 63.749H147.75V74.249H158.25V63.749Z" fill="#7C1A78"/>
<path d="M179.25 63.749L168.75 63.749V74.249H179.25V63.749Z" fill="#7C1A78"/>
<path d="M200.25 63.749H189.75V74.249H200.25V63.749Z" fill="#7C1A78"/>
<path d="M210.75 63.749L200.25 63.749V74.249H210.75V63.749Z" fill="#7C1A78"/>
<path d="M221.25 63.749H210.75V74.249H221.25V63.749Z" fill="#7C1A78"/>
<path d="M231.75 63.749H221.25V74.249H231.75V63.749Z" fill="#7C1A78"/>
<path d="M242.25 63.749H231.75V74.249H242.25V63.749Z" fill="#7C1A78"/>
<path d="M252.75 63.749L242.25 63.749V74.249H252.75V63.749Z" fill="#7C1A78"/>
<path d="M263.25 63.749H252.75V74.249H263.25V63.749Z" fill="#7C1A78"/>
<path d="M95.25 74.249H84.75V84.749H95.25V74.249Z" fill="#7C1A78"/>
<path d="M137.25 74.249H126.75V84.749H137.25V74.249Z" fill="#7C1A78"/>
<path d="M179.25 74.249H168.75V84.749H179.25V74.249Z" fill="#7C1A78"/>
<path d="M11.25 84.749H0.75V95.249H11.25V84.749Z" fill="#7C1A78"/>
<path d="M32.25 84.749H21.75V95.249H32.25V84.749Z" fill="#7C1A78"/>
<path d="M63.75 84.749H53.25V95.249H63.75V84.749Z" fill="#7C1A78"/>
<path d="M74.25 84.749H63.75V95.249H74.25V84.749Z" fill="#7C1A78"/>
<path d="M105.75 84.749H95.25V95.249H105.75V84.749Z" fill="#7C1A78"/>
<path d="M137.25 84.749H126.75V95.249H137.25V84.749Z" fill="#7C1A78"/>
<path d="M147.75 84.749H137.25V95.249H147.75V84.749Z" fill="#7C1A78"/>
<path d="M158.25 84.749H147.75V95.249H158.25V84.749Z" fill="#7C1A78"/>
<path d="M189.75 84.749H179.25V95.249H189.75V84.749Z" fill="#7C1A78"/>
<path d="M200.25 84.749H189.75V95.249H200.25V84.749Z" fill="#7C1A78"/>
<path d="M242.25 84.749H231.75V95.249H242.25V84.749Z" fill="#7C1A78"/>
<path d="M263.25 84.749H252.75V95.249H263.25V84.749Z" fill="#7C1A78"/>
<path d="M21.75 95.249H11.25V105.749H21.75V95.249Z" fill="#7C1A78"/>
<path d="M42.75 95.249H32.25V105.749H42.75V95.249Z" fill="#7C1A78"/>
<path d="M105.75 95.249H95.25V105.749H105.75V95.249Z" fill="#7C1A78"/>
<path d="M116.25 95.249H105.75V105.749H116.25V95.249Z" fill="#7C1A78"/>
<path d="M137.25 95.249H126.75V105.749H137.25V95.249Z" fill="#7C1A78"/>
<path d="M147.75 95.249H137.25V105.749H147.75V95.249Z" fill="#7C1A78"/>
<path d="M158.25 95.249H147.75V105.749H158.25V95.249Z" fill="#7C1A78"/>
<path d="M168.75 95.249H158.25V105.749H168.75V95.249Z" fill="#7C1A78"/>
<path d="M179.25 95.249H168.75V105.749H179.25V95.249Z" fill="#7C1A78"/>
<path d="M200.25 95.249H189.75V105.749H200.25V95.249Z" fill="#7C1A78"/>
<path d="M242.25 95.249H231.75V105.749H242.25V95.249Z" fill="#7C1A78"/>
<path d="M252.75 95.249H242.25V105.749H252.75V95.249Z" fill="#7C1A78"/>
<path d="M21.75 105.749H11.25V116.249H21.75V105.749Z" fill="#7C1A78"/>
<path d="M53.25 105.749H42.75V116.249H53.25V105.749Z" fill="#7C1A78"/>
<path d="M63.75 105.749H53.25V116.249H63.75V105.749Z" fill="#7C1A78"/>
<path d="M74.25 105.749H63.75V116.249H74.25V105.749Z" fill="#7C1A78"/>
<path d="M95.25 105.749H84.75V116.249H95.25V105.749Z" fill="#7C1A78"/>
<path d="M105.75 105.749H95.25V116.249H105.75V105.749Z" fill="#7C1A78"/>
<path d="M126.75 105.749H116.25V116.249H126.75V105.749Z" fill="#7C1A78"/>
<path d="M168.75 105.749H158.25L158.25 116.249H168.75V105.749Z" fill="#7C1A78"/>
<path d="M179.25 105.749H168.75V116.249H179.25V105.749Z" fill="#7C1A78"/>
<path d="M189.75 105.749H179.25V116.249H189.75V105.749Z" fill="#7C1A78"/>
<path d="M200.25 105.749H189.75V116.249H200.25V105.749Z" fill="#7C1A78"/>
<path d="M221.25 105.749H210.75V116.249H221.25V105.749Z" fill="#7C1A78"/>
<path d="M242.25 105.749H231.75V116.249H242.25V105.749Z" fill="#7C1A78"/>
<path d="M263.25 105.749H252.75V116.249H263.25V105.749Z" fill="#7C1A78"/>
<path d="M11.25 116.249H0.75V126.749H11.25V116.249Z" fill="#7C1A78"/>
<path d="M32.25 116.249H21.75V126.749H32.25V116.249Z" fill="#7C1A78"/>
<path d="M63.75 116.249H53.25V126.749H63.75V116.249Z" fill="#7C1A78"/>
<path d="M105.75 116.249H95.25V126.749H105.75V116.249Z" fill="#7C1A78"/>
<path d="M137.25 116.249H126.75V126.749H137.25V116.249Z" fill="#7C1A78"/>
<path d="M158.25 116.249H147.75V126.749H158.25L158.25 116.249Z" fill="#7C1A78"/>
<path d="M179.25 116.249H168.75V126.749H179.25V116.249Z" fill="#7C1A78"/>
<path d="M210.75 116.249H200.25V126.749H210.75V116.249Z" fill="#7C1A78"/>
<path d="M242.25 116.249H231.75V126.749H242.25V116.249Z" fill="#7C1A78"/>
<path d="M263.25 116.249H252.75V126.749H263.25V116.249Z" fill="#7C1A78"/>
<path d="M11.25 126.749H0.75V137.249H11.25V126.749Z" fill="#7C1A78"/>
<path d="M21.75 126.749H11.25V137.249H21.75V126.749Z" fill="#7C1A78"/>
<path d="M32.25 126.749H21.75V137.249H32.25V126.749Z" fill="#7C1A78"/>
<path d="M42.75 126.749H32.25V137.249H42.75V126.749Z" fill="#7C1A78"/>
<path d="M53.25 126.749H42.75V137.249H53.25V126.749Z" fill="#7C1A78"/>
<path d="M74.25 126.749H63.75L63.75 137.249H74.25V126.749Z" fill="#7C1A78"/>
<path d="M84.75 126.749H74.25V137.249H84.75V126.749Z" fill="#7C1A78"/>
<path d="M95.25 126.749H84.75V137.249H95.25V126.749Z" fill="#7C1A78"/>
<path d="M116.25 126.749H105.75V137.249H116.25V126.749Z" fill="#7C1A78"/>
<path d="M179.25 126.749H168.75V137.249H179.25V126.749Z" fill="#7C1A78"/>
<path d="M189.75 126.749H179.25V137.249H189.75V126.749Z" fill="#7C1A78"/>
<path d="M200.25 126.749H189.75V137.249H200.25V126.749Z" fill="#7C1A78"/>
<path d="M210.75 126.749H200.25V137.249H210.75V126.749Z" fill="#7C1A78"/>
<path d="M263.25 126.749H252.75V137.249H263.25V126.749Z" fill="#7C1A78"/>
<path d="M11.25 137.249H0.75V147.749H11.25V137.249Z" fill="#7C1A78"/>
<path d="M32.25 137.249H21.75V147.749H32.25V137.249Z" fill="#7C1A78"/>
<path d="M63.75 137.249H53.25V147.749H63.75L63.75 137.249Z" fill="#7C1A78"/>
<path d="M84.75 137.249H74.25V147.749H84.75V137.249Z" fill="#7C1A78"/>
<path d="M95.25 137.249H84.75V147.749H95.25V137.249Z" fill="#7C1A78"/>
<path d="M116.25 137.249H105.75V147.749H116.25V137.249Z" fill="#7C1A78"/>
<path d="M137.25 137.249H126.75V147.749H137.25V137.249Z" fill="#7C1A78"/>
<path d="M147.75 137.249H137.25V147.749H147.75V137.249Z" fill="#7C1A78"/>
<path d="M168.75 137.249H158.25V147.749H168.75V137.249Z" fill="#7C1A78"/>
<path d="M179.25 137.249H168.75V147.749H179.25V137.249Z" fill="#7C1A78"/>
<path d="M200.25 137.249H189.75V147.749H200.25V137.249Z" fill="#7C1A78"/>
<path d="M221.25 137.249H210.75V147.749H221.25V137.249Z" fill="#7C1A78"/>
<path d="M231.75 137.249H221.25V147.749H231.75V137.249Z" fill="#7C1A78"/>
<path d="M252.75 137.249H242.25V147.749H252.75V137.249Z" fill="#7C1A78"/>
<path d="M263.25 137.249H252.75V147.749H263.25V137.249Z" fill="#7C1A78"/>
<path d="M11.25 147.749H0.75V158.249H11.25V147.749Z" fill="#7C1A78"/>
<path d="M63.75 147.749H53.25V158.249H63.75V147.749Z" fill="#7C1A78"/>
<path d="M74.25 147.749H63.75V158.249H74.25V147.749Z" fill="#7C1A78"/>
<path d="M116.25 147.749H105.75V158.249H116.25V147.749Z" fill="#7C1A78"/>
<path d="M126.75 147.749H116.25V158.249H126.75V147.749Z" fill="#7C1A78"/>
<path d="M137.25 147.749H126.75V158.249H137.25V147.749Z" fill="#7C1A78"/>
<path d="M147.75 147.749H137.25V158.249H147.75V147.749Z" fill="#7C1A78"/>
<path d="M200.25 147.749H189.75V158.249H200.25V147.749Z" fill="#7C1A78"/>
<path d="M210.75 147.749H200.25V158.249H210.75V147.749Z" fill="#7C1A78"/>
<path d="M221.25 147.749H210.75V158.249H221.25V147.749Z" fill="#7C1A78"/>
<path d="M231.75 147.749H221.25V158.249H231.75V147.749Z" fill="#7C1A78"/>
<path d="M11.25 158.249H0.75V168.749H11.25V158.249Z" fill="#7C1A78"/>
<path d="M21.75 158.249L11.25 158.249V168.749H21.75V158.249Z" fill="#7C1A78"/>
<path d="M42.75 158.249H32.25V168.749H42.75V158.249Z" fill="#7C1A78"/>
<path d="M53.25 158.249L42.75 158.249V168.749H53.25V158.249Z" fill="#7C1A78"/>
<path d="M95.25 158.249H84.75V168.749H95.25V158.249Z" fill="#7C1A78"/>
<path d="M126.75 158.249H116.25V168.749H126.75V158.249Z" fill="#7C1A78"/>
<path d="M158.25 158.249L147.75 158.249V168.749H158.25V158.249Z" fill="#7C1A78"/>
<path d="M179.25 158.249H168.75V168.749H179.25V158.249Z" fill="#7C1A78"/>
<path d="M210.75 158.249H200.25V168.749H210.75V158.249Z" fill="#7C1A78"/>
<path d="M221.25 158.249H210.75V168.749H221.25V158.249Z" fill="#7C1A78"/>
<path d="M42.75 168.749H32.25V179.249H42.75V168.749Z" fill="#7C1A78"/>
<path d="M53.25 168.749H42.75V179.249H53.25V168.749Z" fill="#7C1A78"/>
<path d="M63.75 168.749H53.25V179.249H63.75V168.749Z" fill="#7C1A78"/>
<path d="M74.25 168.749H63.75V179.249H74.25V168.749Z" fill="#7C1A78"/>
<path d="M95.25 168.749H84.75V179.249H95.25V168.749Z" fill="#7C1A78"/>
<path d="M105.75 168.749H95.25V179.249H105.75V168.749Z" fill="#7C1A78"/>
<path d="M116.25 168.749H105.75V179.249H116.25V168.749Z" fill="#7C1A78"/>
<path d="M126.75 168.749H116.25V179.249H126.75V168.749Z" fill="#7C1A78"/>
<path d="M137.25 168.749H126.75V179.249H137.25V168.749Z" fill="#7C1A78"/>
<path d="M168.75 168.749H158.25L158.25 179.249H168.75V168.749Z" fill="#7C1A78"/>
<path d="M179.25 168.749H168.75V179.249H179.25V168.749Z" fill="#7C1A78"/>
<path d="M189.75 168.749H179.25V179.249H189.75V168.749Z" fill="#7C1A78"/>
<path d="M200.25 168.749H189.75V179.249H200.25V168.749Z" fill="#7C1A78"/>
<path d="M210.75 168.749H200.25V179.249H210.75V168.749Z" fill="#7C1A78"/>
<path d="M221.25 168.749H210.75V179.249H221.25V168.749Z" fill="#7C1A78"/>
<path d="M242.25 168.749H231.75V179.249H242.25V168.749Z" fill="#7C1A78"/>
<path d="M252.75 168.749H242.25V179.249H252.75V168.749Z" fill="#7C1A78"/>
<path d="M263.25 168.749H252.75V179.249H263.25V168.749Z" fill="#7C1A78"/>
<path d="M116.25 179.249H105.75V189.749H116.25V179.249Z" fill="#7C1A78"/>
<path d="M158.25 179.249H147.75V189.749H158.25L158.25 179.249Z" fill="#7C1A78"/>
<path d="M168.75 179.249H158.25L158.25 189.749H168.75V179.249Z" fill="#7C1A78"/>
<path d="M179.25 179.249H168.75V189.749H179.25V179.249Z" fill="#7C1A78"/>
<path d="M221.25 179.249H210.75V189.749H221.25V179.249Z" fill="#7C1A78"/>
<path d="M231.75 179.249H221.25V189.749H231.75V179.249Z" fill="#7C1A78"/>
<path d="M242.25 179.249H231.75V189.749H242.25V179.249Z" fill="#7C1A78"/>
<path d="M252.75 179.249H242.25V189.749H252.75V179.249Z" fill="#7C1A78"/>
<path d="M11.25 189.749H0.75V200.249H11.25V189.749Z" fill="#7C1A78"/>
<path d="M21.75 189.749H11.25V200.249H21.75V189.749Z" fill="#7C1A78"/>
<path d="M32.25 189.749H21.75V200.249H32.25V189.749Z" fill="#7C1A78"/>
<path d="M42.75 189.749H32.25V200.249H42.75V189.749Z" fill="#7C1A78"/>
<path d="M53.25 189.749H42.75V200.249H53.25V189.749Z" fill="#7C1A78"/>
<path d="M63.75 189.749H53.25V200.249H63.75V189.749Z" fill="#7C1A78"/>
<path d="M74.25 189.749H63.75V200.249H74.25V189.749Z" fill="#7C1A78"/>
<path d="M105.75 189.749H95.25V200.249H105.75V189.749Z" fill="#7C1A78"/>
<path d="M116.25 189.749H105.75V200.249H116.25V189.749Z" fill="#7C1A78"/>
<path d="M137.25 189.749H126.75V200.249H137.25V189.749Z" fill="#7C1A78"/>
<path d="M147.75 189.749H137.25V200.249H147.75V189.749Z" fill="#7C1A78"/>
<path d="M158.25 189.749H147.75V200.249H158.25V189.749Z" fill="#7C1A78"/>
<path d="M168.75 189.749H158.25V200.249H168.75V189.749Z" fill="#7C1A78"/>
<path d="M179.25 189.749H168.75V200.249H179.25V189.749Z" fill="#7C1A78"/>
<path d="M200.25 189.749H189.75V200.249H200.25V189.749Z" fill="#7C1A78"/>
<path d="M221.25 189.749H210.75V200.249H221.25V189.749Z" fill="#7C1A78"/>
<path d="M252.75 189.749H242.25V200.249H252.75V189.749Z" fill="#7C1A78"/>
<path d="M11.25 200.249H0.75V210.749H11.25V200.249Z" fill="#7C1A78"/>
<path d="M74.25 200.249H63.75L63.75 210.749H74.25V200.249Z" fill="#7C1A78"/>
<path d="M95.25 200.249H84.75V210.749H95.25V200.249Z" fill="#7C1A78"/>
<path d="M116.25 200.249H105.75V210.749H116.25V200.249Z" fill="#7C1A78"/>
<path d="M147.75 200.249H137.25V210.749H147.75V200.249Z" fill="#7C1A78"/>
<path d="M179.25 200.249H168.75V210.749H179.25V200.249Z" fill="#7C1A78"/>
<path d="M221.25 200.249H210.75V210.749H221.25V200.249Z" fill="#7C1A78"/>
<path d="M231.75 200.249H221.25V210.749H231.75V200.249Z" fill="#7C1A78"/>
<path d="M263.25 200.249H252.75V210.749H263.25V200.249Z" fill="#7C1A78"/>
<path d="M11.25 210.749H0.75V221.249H11.25V210.749Z" fill="#7C1A78"/>
<path d="M32.25 210.749H21.75V221.249H32.25V210.749Z" fill="#7C1A78"/>
<path d="M42.75 210.749H32.25V221.249H42.75V210.749Z" fill="#7C1A78"/>
<path d="M53.25 210.749H42.75V221.249H53.25V210.749Z" fill="#7C1A78"/>
<path d="M74.25 210.749H63.75V221.249H74.25V210.749Z" fill="#7C1A78"/>
<path d="M158.25 210.749H147.75V221.249H158.25V210.749Z" fill="#7C1A78"/>
<path d="M179.25 210.749H168.75V221.249H179.25V210.749Z" fill="#7C1A78"/>
<path d="M189.75 210.749H179.25V221.249H189.75V210.749Z" fill="#7C1A78"/>
<path d="M200.25 210.749H189.75V221.249H200.25V210.749Z" fill="#7C1A78"/>
<path d="M210.75 210.749H200.25V221.249H210.75V210.749Z" fill="#7C1A78"/>
<path d="M221.25 210.749H210.75V221.249H221.25V210.749Z" fill="#7C1A78"/>
<path d="M231.75 210.749H221.25V221.249H231.75V210.749Z" fill="#7C1A78"/>
<path d="M242.25 210.749H231.75V221.249H242.25V210.749Z" fill="#7C1A78"/>
<path d="M263.25 210.749H252.75V221.249H263.25V210.749Z" fill="#7C1A78"/>
<path d="M11.25 221.249H0.75V231.749H11.25V221.249Z" fill="#7C1A78"/>
<path d="M32.25 221.249H21.75V231.749H32.25V221.249Z" fill="#7C1A78"/>
<path d="M42.75 221.249H32.25V231.749H42.75V221.249Z" fill="#7C1A78"/>
<path d="M53.25 221.249H42.75V231.749H53.25V221.249Z" fill="#7C1A78"/>
<path d="M74.25 221.249H63.75V231.749H74.25V221.249Z" fill="#7C1A78"/>
<path d="M126.75 221.249H116.25V231.749H126.75V221.249Z" fill="#7C1A78"/>
<path d="M137.25 221.249H126.75V231.749H137.25V221.249Z" fill="#7C1A78"/>
<path d="M147.75 221.249H137.25V231.749H147.75V221.249Z" fill="#7C1A78"/>
<path d="M158.25 221.249H147.75V231.749H158.25V221.249Z" fill="#7C1A78"/>
<path d="M168.75 221.249H158.25V231.749H168.75V221.249Z" fill="#7C1A78"/>
<path d="M179.25 221.249H168.75V231.749H179.25V221.249Z" fill="#7C1A78"/>
<path d="M189.75 221.249H179.25V231.749H189.75V221.249Z" fill="#7C1A78"/>
<path d="M210.75 221.249H200.25V231.749H210.75V221.249Z" fill="#7C1A78"/>
<path d="M231.75 221.249H221.25V231.749H231.75V221.249Z" fill="#7C1A78"/>
<path d="M263.25 221.249H252.75V231.749H263.25V221.249Z" fill="#7C1A78"/>
<path d="M11.25 231.749H0.75V242.249H11.25V231.749Z" fill="#7C1A78"/>
<path d="M32.25 231.749H21.75V242.249H32.25V231.749Z" fill="#7C1A78"/>
<path d="M42.75 231.749H32.25V242.249H42.75V231.749Z" fill="#7C1A78"/>
<path d="M53.25 231.749H42.75V242.249H53.25V231.749Z" fill="#7C1A78"/>
<path d="M74.25 231.749H63.75V242.249H74.25V231.749Z" fill="#7C1A78"/>
<path d="M95.25 231.749H84.75V242.249H95.25V231.749Z" fill="#7C1A78"/>
<path d="M105.75 231.749H95.25V242.249H105.75V231.749Z" fill="#7C1A78"/>
<path d="M116.25 231.749H105.75V242.249H116.25V231.749Z" fill="#7C1A78"/>
<path d="M147.75 231.749H137.25V242.249H147.75V231.749Z" fill="#7C1A78"/>
<path d="M189.75 231.749H179.25V242.249H189.75V231.749Z" fill="#7C1A78"/>
<path d="M11.25 242.249H0.75V252.749H11.25V242.249Z" fill="#7C1A78"/>
<path d="M74.25 242.249H63.75V252.749H74.25V242.249Z" fill="#7C1A78"/>
<path d="M105.75 242.249H95.25V252.749H105.75V242.249Z" fill="#7C1A78"/>
<path d="M126.75 242.249H116.25V252.749H126.75V242.249Z" fill="#7C1A78"/>
<path d="M137.25 242.249H126.75V252.749H137.25V242.249Z" fill="#7C1A78"/>
<path d="M179.25 242.249H168.75V252.749H179.25V242.249Z" fill="#7C1A78"/>
<path d="M189.75 242.249H179.25V252.749H189.75V242.249Z" fill="#7C1A78"/>
<path d="M242.25 242.249H231.75V252.749H242.25V242.249Z" fill="#7C1A78"/>
<path d="M11.25 252.749H0.75V263.249H11.25V252.749Z" fill="#7C1A78"/>
<path d="M21.75 252.749H11.25V263.249H21.75V252.749Z" fill="#7C1A78"/>
<path d="M32.25 252.749H21.75V263.249H32.25V252.749Z" fill="#7C1A78"/>
<path d="M42.75 252.749H32.25V263.249H42.75V252.749Z" fill="#7C1A78"/>
<path d="M53.25 252.749H42.75V263.249H53.25V252.749Z" fill="#7C1A78"/>
<path d="M63.75 252.749H53.25V263.249H63.75L63.75 252.749Z" fill="#7C1A78"/>
<path d="M74.25 252.749H63.75L63.75 263.249H74.25V252.749Z" fill="#7C1A78"/>
<path d="M95.25 252.749H84.75V263.249H95.25V252.749Z" fill="#7C1A78"/>
<path d="M105.75 252.749H95.25V263.249H105.75V252.749Z" fill="#7C1A78"/>
<path d="M116.25 252.749H105.75V263.249H116.25V252.749Z" fill="#7C1A78"/>
<path d="M137.25 252.749H126.75V263.249H137.25V252.749Z" fill="#7C1A78"/>
<path d="M147.75 252.749H137.25V263.249H147.75V252.749Z" fill="#7C1A78"/>
<path d="M158.25 252.749H147.75V263.249H158.25V252.749Z" fill="#7C1A78"/>
<path d="M179.25 252.749H168.75V263.249H179.25V252.749Z" fill="#7C1A78"/>
<path d="M189.75 252.749H179.25V263.249H189.75V252.749Z" fill="#7C1A78"/>
<path d="M200.25 252.749H189.75V263.249H200.25V252.749Z" fill="#7C1A78"/>
<path d="M210.75 252.749H200.25V263.249H210.75V252.749Z" fill="#7C1A78"/>
<path d="M242.25 252.749H231.75V263.249H242.25V252.749Z" fill="#7C1A78"/>
<path d="M263.25 252.749H252.75V263.249H263.25V252.749Z" fill="#7C1A78"/>
</svg>
