<svg width="135" height="48" viewBox="0 0 135 48" fill="none" xmlns="http://www.w3.org/2000/svg">
<g clip-path="url(#clip0_3279_31881)">
<path d="M128.599 0H6.99912C3.4645 0 0.599121 2.86538 0.599121 6.4V41.6C0.599121 45.1346 3.4645 48 6.99912 48H128.599C132.134 48 134.999 45.1346 134.999 41.6V6.4C134.999 2.86538 132.134 0 128.599 0Z" fill="#F4333D"/>
<path d="M16.2465 23.2006L14.1441 19.3846H13.5537V23.2006H11.0913V13.0918H15.2241C16.0209 13.0918 16.6977 13.231 17.2545 13.5094C17.8209 13.7878 18.2433 14.1718 18.5217 14.6614C18.8001 15.1414 18.9393 15.679 18.9393 16.2742C18.9393 16.9462 18.7473 17.5462 18.3633 18.0742C17.9889 18.6022 17.4321 18.9766 16.6929 19.1974L19.0257 23.2006H16.2465ZM13.5537 17.6422H15.0801C15.5313 17.6422 15.8673 17.5318 16.0881 17.311C16.3185 17.0902 16.4337 16.7782 16.4337 16.375C16.4337 15.991 16.3185 15.6886 16.0881 15.4678C15.8673 15.247 15.5313 15.1366 15.0801 15.1366H13.5537V17.6422Z" fill="white"/>
<path d="M28.0596 19.053C28.0596 19.2834 28.0452 19.5234 28.0164 19.773H22.4436C22.482 20.2722 22.6404 20.6562 22.9188 20.925C23.2068 21.1842 23.5572 21.3138 23.97 21.3138C24.5844 21.3138 25.0116 21.0546 25.2516 20.5362H27.8724C27.738 21.0642 27.4932 21.5394 27.138 21.9618C26.7924 22.3842 26.3556 22.7154 25.8276 22.9554C25.2996 23.1954 24.7092 23.3154 24.0564 23.3154C23.2692 23.3154 22.5684 23.1474 21.954 22.8114C21.3396 22.4754 20.8596 21.9954 20.514 21.3714C20.1684 20.7474 19.9956 20.0178 19.9956 19.1826C19.9956 18.3474 20.1636 17.6178 20.4996 16.9938C20.8452 16.3698 21.3252 15.8898 21.9396 15.5538C22.554 15.2178 23.2596 15.0498 24.0564 15.0498C24.834 15.0498 25.5252 15.213 26.13 15.5394C26.7348 15.8658 27.2052 16.3314 27.5412 16.9362C27.8868 17.541 28.0596 18.2466 28.0596 19.053ZM25.5396 18.405C25.5396 17.9826 25.3956 17.6466 25.1076 17.397C24.8196 17.1474 24.4596 17.0226 24.0276 17.0226C23.6148 17.0226 23.2644 17.1426 22.9764 17.3826C22.698 17.6226 22.5252 17.9634 22.458 18.405H25.5396Z" fill="white"/>
<path d="M33.8378 21.1126V23.2006H32.585C31.6922 23.2006 30.9962 22.9846 30.497 22.5526C29.9978 22.111 29.7482 21.3958 29.7482 20.407V17.2102H28.769V15.1654H29.7482V13.207H32.2106V15.1654H33.8234V17.2102H32.2106V20.4358C32.2106 20.6758 32.2682 20.8486 32.3834 20.9542C32.4986 21.0598 32.6906 21.1126 32.9594 21.1126H33.8378Z" fill="white"/>
<path d="M37.6709 16.5037C37.9589 16.0621 38.3189 15.7165 38.7509 15.4669C39.1829 15.2077 39.6629 15.0781 40.1909 15.0781V17.6845H39.5141C38.8997 17.6845 38.4389 17.8189 38.1317 18.0877C37.8245 18.3469 37.6709 18.8077 37.6709 19.4701V23.1997H35.2085V15.1645H37.6709V16.5037Z" fill="white"/>
<path d="M42.607 14.33C42.175 14.33 41.8198 14.2052 41.5414 13.9556C41.2726 13.6964 41.1382 13.3796 41.1382 13.0052C41.1382 12.6212 41.2726 12.3044 41.5414 12.0548C41.8198 11.7956 42.175 11.666 42.607 11.666C43.0294 11.666 43.375 11.7956 43.6438 12.0548C43.9222 12.3044 44.0614 12.6212 44.0614 13.0052C44.0614 13.3796 43.9222 13.6964 43.6438 13.9556C43.375 14.2052 43.0294 14.33 42.607 14.33ZM43.831 15.1652V23.2004H41.3686V15.1652H43.831Z" fill="white"/>
<path d="M53.1905 19.0528C53.1905 19.2832 53.1761 19.5232 53.1473 19.7728H47.5745C47.6129 20.272 47.7713 20.656 48.0497 20.9248C48.3377 21.184 48.6881 21.3136 49.1009 21.3136C49.7153 21.3136 50.1425 21.0544 50.3825 20.536H53.0033C52.8689 21.064 52.6241 21.5392 52.2689 21.9616C51.9233 22.384 51.4865 22.7152 50.9585 22.9552C50.4305 23.1952 49.8401 23.3152 49.1873 23.3152C48.4001 23.3152 47.6993 23.1472 47.0849 22.8112C46.4705 22.4752 45.9905 21.9952 45.6449 21.3712C45.2993 20.7472 45.1265 20.0176 45.1265 19.1824C45.1265 18.3472 45.2945 17.6176 45.6305 16.9936C45.9761 16.3696 46.4561 15.8896 47.0705 15.5536C47.6849 15.2176 48.3905 15.0496 49.1873 15.0496C49.9649 15.0496 50.6561 15.2128 51.2609 15.5392C51.8657 15.8656 52.3361 16.3312 52.6721 16.936C53.0177 17.5408 53.1905 18.2464 53.1905 19.0528ZM50.6705 18.4048C50.6705 17.9824 50.5265 17.6464 50.2385 17.3968C49.9505 17.1472 49.5905 17.0224 49.1585 17.0224C48.7457 17.0224 48.3953 17.1424 48.1073 17.3824C47.8289 17.6224 47.6561 17.9632 47.5889 18.4048H50.6705Z" fill="white"/>
<path d="M58.1037 20.8962L59.8461 15.165H62.4669L59.6157 23.2002H56.5773L53.7261 15.165H56.3613L58.1037 20.8962Z" fill="white"/>
<path d="M71.0772 19.053C71.0772 19.2834 71.0628 19.5234 71.034 19.773H65.4612C65.4996 20.2722 65.658 20.6562 65.9364 20.925C66.2244 21.1842 66.5748 21.3138 66.9876 21.3138C67.602 21.3138 68.0292 21.0546 68.2692 20.5362H70.89C70.7556 21.0642 70.5108 21.5394 70.1556 21.9618C69.81 22.3842 69.3732 22.7154 68.8452 22.9554C68.3172 23.1954 67.7268 23.3154 67.074 23.3154C66.2868 23.3154 65.586 23.1474 64.9716 22.8114C64.3572 22.4754 63.8772 21.9954 63.5316 21.3714C63.186 20.7474 63.0132 20.0178 63.0132 19.1826C63.0132 18.3474 63.1812 17.6178 63.5172 16.9938C63.8628 16.3698 64.3428 15.8898 64.9572 15.5538C65.5716 15.2178 66.2772 15.0498 67.074 15.0498C67.8516 15.0498 68.5428 15.213 69.1476 15.5394C69.7524 15.8658 70.2228 16.3314 70.5588 16.9362C70.9044 17.541 71.0772 18.2466 71.0772 19.053ZM68.5572 18.405C68.5572 17.9826 68.4132 17.6466 68.1252 17.397C67.8372 17.1474 67.4772 17.0226 67.0452 17.0226C66.6324 17.0226 66.282 17.1426 65.994 17.3826C65.7156 17.6226 65.5428 17.9634 65.4756 18.405H68.5572Z" fill="white"/>
<path d="M86.8753 13.0918V23.2006H84.4129V17.1382L82.1521 23.2006H80.1648L77.8896 17.1238V23.2006H75.4272V13.0918H78.336L81.1729 20.0902L83.9809 13.0918H86.8753Z" fill="white"/>
<path d="M96.8549 15.165L91.8149 27.0162H89.1653L91.0085 22.9266L87.7397 15.165H90.4901L92.3477 20.1906L94.1909 15.165H96.8549Z" fill="white"/>
<path d="M98.9839 14.33C98.5519 14.33 98.1967 14.2052 97.9183 13.9556C97.6495 13.6964 97.5151 13.3796 97.5151 13.0052C97.5151 12.6212 97.6495 12.3044 97.9183 12.0548C98.1967 11.7956 98.5519 11.666 98.9839 11.666C99.4063 11.666 99.7519 11.7956 100.021 12.0548C100.299 12.3044 100.438 12.6212 100.438 13.0052C100.438 13.3796 100.299 13.6964 100.021 13.9556C99.7519 14.2052 99.4063 14.33 98.9839 14.33ZM100.208 15.1652V23.2004H97.7455V15.1652H100.208Z" fill="white"/>
<path d="M106.888 15.0781C107.828 15.0781 108.577 15.3853 109.134 15.9997C109.701 16.6045 109.984 17.4397 109.984 18.5053V23.1997H107.536V18.8365C107.536 18.2989 107.397 17.8813 107.118 17.5837C106.84 17.2861 106.465 17.1373 105.995 17.1373C105.524 17.1373 105.15 17.2861 104.872 17.5837C104.593 17.8813 104.454 18.2989 104.454 18.8365V23.1997H101.992V15.1645H104.454V16.2301C104.704 15.8749 105.04 15.5965 105.462 15.3949C105.884 15.1837 106.36 15.0781 106.888 15.0781Z" fill="white"/>
<path d="M115.728 17.2094H114.404V23.1998H111.941V17.2094H111.048V15.1646H111.941V14.9342C111.941 13.9454 112.224 13.1966 112.791 12.6878C113.357 12.1694 114.188 11.9102 115.282 11.9102C115.464 11.9102 115.599 11.915 115.685 11.9246V14.0126C115.215 13.9838 114.884 14.051 114.692 14.2142C114.5 14.3774 114.404 14.6702 114.404 15.0926V15.1646H115.728V17.2094Z" fill="white"/>
<path d="M120.541 23.3154C119.754 23.3154 119.044 23.1474 118.41 22.8114C117.786 22.4754 117.292 21.9954 116.927 21.3714C116.572 20.7474 116.394 20.0178 116.394 19.1826C116.394 18.357 116.576 17.6322 116.941 17.0082C117.306 16.3746 117.805 15.8898 118.439 15.5538C119.072 15.2178 119.783 15.0498 120.57 15.0498C121.357 15.0498 122.068 15.2178 122.701 15.5538C123.335 15.8898 123.834 16.3746 124.199 17.0082C124.564 17.6322 124.746 18.357 124.746 19.1826C124.746 20.0082 124.559 20.7378 124.184 21.3714C123.82 21.9954 123.316 22.4754 122.672 22.8114C122.039 23.1474 121.328 23.3154 120.541 23.3154ZM120.541 21.1842C121.012 21.1842 121.41 21.0114 121.736 20.6658C122.072 20.3202 122.24 19.8258 122.24 19.1826C122.24 18.5394 122.077 18.045 121.751 17.6994C121.434 17.3538 121.04 17.181 120.57 17.181C120.09 17.181 119.692 17.3538 119.375 17.6994C119.058 18.0354 118.9 18.5298 118.9 19.1826C118.9 19.8258 119.053 20.3202 119.36 20.6658C119.677 21.0114 120.071 21.1842 120.541 21.1842Z" fill="white"/>
<path d="M32.4755 35.3142C33.7391 35.3142 34.5075 34.6539 34.5075 33.6066C34.5075 32.8894 34.0693 32.3999 33.1643 32.2006L32.2763 32.0014C31.9405 31.9218 31.764 31.8136 31.764 31.6144C31.764 31.4152 31.9291 31.29 32.3332 31.29C32.8017 31.3063 33.2493 31.4878 33.5968 31.8022L34.3425 30.7094C33.7558 30.299 33.0479 30.0985 32.3332 30.1402C31.1493 30.1402 30.3524 30.7094 30.3524 31.7169C30.3447 32.0745 30.4713 32.422 30.7074 32.6908C30.9435 32.9595 31.2718 33.1299 31.6275 33.1683L32.5097 33.3789C32.9479 33.4757 33.0789 33.6066 33.0789 33.7774C33.0789 33.9481 32.9024 34.1132 32.5097 34.1132C31.953 34.1022 31.4168 33.9014 30.9899 33.544L30.1987 34.6027C30.8501 35.1009 31.6564 35.3529 32.4755 35.3142Z" fill="white"/>
<path d="M35.982 31.8192C36.1533 31.8192 36.3208 31.7684 36.4632 31.673C36.6056 31.5777 36.7165 31.4423 36.7818 31.2838C36.8471 31.1254 36.8639 30.9512 36.8301 30.7832C36.7962 30.6152 36.7133 30.4611 36.5917 30.3403C36.4701 30.2195 36.3154 30.1376 36.1472 30.1048C35.979 30.072 35.8049 30.09 35.6469 30.1564C35.4889 30.2228 35.3541 30.3345 35.2598 30.4776C35.1654 30.6206 35.1157 30.7884 35.1168 30.9597C35.1152 31.0736 35.1365 31.1864 35.1796 31.2918C35.2225 31.3972 35.2863 31.4928 35.3671 31.573C35.4478 31.6532 35.5438 31.7163 35.6495 31.7586C35.7551 31.8009 35.8681 31.8216 35.982 31.8192Z" fill="white"/>
<path d="M35.0483 35.2002H36.9153L36.5226 32.1094C36.1698 32.2005 35.7996 32.2005 35.4468 32.1094L35.0483 35.2002Z" fill="white"/>
<path d="M37.7905 35.1993H39.3045V32.5241C39.3045 31.8696 39.6233 31.4654 40.238 31.4654C40.8528 31.4654 41.1316 31.8012 41.1316 32.5241V35.1993H42.623V32.1484C42.623 30.8165 41.957 30.1335 40.8186 30.1335C40.5221 30.1206 40.2272 30.184 39.9621 30.3175C39.6971 30.451 39.4707 30.6503 39.3045 30.8962V30.5775C39.3089 30.5308 39.303 30.4837 39.2871 30.4396C39.2712 30.3955 39.2457 30.3554 39.2126 30.3222C39.1794 30.2891 39.1394 30.2636 39.0952 30.2477C39.0512 30.2318 39.004 30.2259 38.9573 30.2303H37.8189L37.7905 35.1993Z" fill="white"/>
<path d="M47.5021 30.2311C47.4554 30.2267 47.4084 30.2326 47.3642 30.2486C47.3201 30.2645 47.28 30.2899 47.2468 30.323C47.2137 30.3562 47.1883 30.3963 47.1724 30.4404C47.1565 30.4846 47.1505 30.5316 47.1549 30.5783V30.88C46.9892 30.636 46.7632 30.4391 46.4989 30.3085C46.2346 30.1778 45.9409 30.1178 45.6465 30.1343C45.0337 30.1933 44.4649 30.4784 44.051 30.9341C43.637 31.3898 43.4077 31.9834 43.4077 32.599C43.4077 33.2146 43.637 33.8082 44.051 34.2638C44.4649 34.7195 45.0337 35.0046 45.6465 35.0636C45.9312 35.0815 46.2162 35.0322 46.4783 34.9194C46.7404 34.8066 46.9721 34.6338 47.1549 34.4147V34.7448C47.1552 34.9008 47.1236 35.0551 47.0617 35.1982C47 35.3414 46.9095 35.4704 46.7958 35.5771C46.6821 35.6838 46.5477 35.7661 46.4009 35.8188C46.2541 35.8714 46.0981 35.8934 45.9425 35.8832C45.3836 35.8941 44.8418 35.6904 44.4284 35.314L43.6487 36.4524C44.313 36.9545 45.1339 37.2046 45.9653 37.1582C47.4566 37.1582 48.669 36.4126 48.669 34.5399V30.2311H47.5021ZM46.045 33.7487C45.8198 33.7487 45.5997 33.682 45.4125 33.5569C45.2253 33.4318 45.0794 33.254 44.9932 33.046C44.9071 32.838 44.8845 32.609 44.9284 32.3882C44.9724 32.1674 45.0808 31.9646 45.24 31.8054C45.3992 31.6462 45.602 31.5378 45.8229 31.4938C46.0437 31.4499 46.2726 31.4724 46.4806 31.5586C46.6887 31.6448 46.8664 31.7906 46.9915 31.9779C47.1166 32.1651 47.1834 32.3852 47.1834 32.6103C47.1834 32.9122 47.0634 33.2018 46.85 33.4153C46.6364 33.6288 46.3469 33.7487 46.045 33.7487Z" fill="white"/>
<path d="M52.8371 30.1335C52.5335 30.12 52.2312 30.181 51.9564 30.3109C51.6816 30.4408 51.4427 30.636 51.2605 30.8792V30.5775C51.2649 30.5308 51.2589 30.4837 51.2431 30.4396C51.2271 30.3955 51.2017 30.3554 51.1686 30.3222C51.1354 30.2891 51.0953 30.2636 51.0512 30.2477C51.0071 30.2319 50.96 30.2259 50.9133 30.2303H49.7749V37.0208H51.2605V34.6529C51.4583 34.8724 51.7023 35.0455 51.9749 35.1596C52.2475 35.2738 52.5419 35.3263 52.8371 35.3132C53.1627 35.3049 53.4832 35.2304 53.7791 35.0944C54.0751 34.9584 54.3403 34.7636 54.5585 34.5219C54.7768 34.2802 54.9436 33.9966 55.0489 33.6884C55.1542 33.3802 55.1957 33.0538 55.1709 32.7291C55.1973 32.4034 55.1571 32.0758 55.0525 31.7663C54.9479 31.4567 54.7814 31.1717 54.5629 30.9288C54.3445 30.6858 54.0787 30.49 53.782 30.3532C53.4853 30.2165 53.1638 30.1417 52.8371 30.1335ZM52.4387 33.987C52.1844 33.9972 51.9328 33.9311 51.7163 33.7971C51.4999 33.6631 51.3286 33.4674 51.2243 33.2352C51.1201 33.0029 51.0878 32.7448 51.1315 32.494C51.1752 32.2432 51.293 32.0113 51.4696 31.828C51.6463 31.6448 51.8738 31.5186 52.1228 31.4658C52.3719 31.4129 52.631 31.4358 52.8668 31.5316C53.1027 31.6272 53.3046 31.7913 53.4463 32.0028C53.5882 32.2141 53.6635 32.4632 53.6625 32.7176C53.6711 32.8828 53.6457 33.0479 53.5879 33.2028C53.5299 33.3576 53.4409 33.4989 53.3262 33.618C53.2114 33.737 53.0735 33.8312 52.9207 33.8946C52.7681 33.9581 52.604 33.9896 52.4387 33.987Z" fill="white"/>
<path d="M60.0933 30.2309C60.0466 30.2265 59.9996 30.2325 59.9554 30.2483C59.9113 30.2643 59.8713 30.2897 59.8381 30.3228C59.8049 30.356 59.7795 30.3961 59.7636 30.4402C59.7477 30.4843 59.7417 30.5314 59.7461 30.5781V30.8798C59.5612 30.6324 59.3177 30.4348 59.0375 30.3047C58.7574 30.1745 58.4493 30.1159 58.141 30.1341C57.8154 30.1424 57.4949 30.2169 57.199 30.3529C56.9031 30.489 56.6379 30.6838 56.4197 30.9255C56.2013 31.1671 56.0345 31.4507 55.9293 31.759C55.824 32.0671 55.7825 32.3935 55.8073 32.7183C55.7825 33.0431 55.824 33.3695 55.9293 33.6776C56.0345 33.9859 56.2013 34.2694 56.4197 34.5111C56.6379 34.7528 56.9031 34.9476 57.199 35.0836C57.4949 35.2197 57.8154 35.2941 58.141 35.3024C58.4492 35.3191 58.7567 35.2599 59.0365 35.1299C59.3165 34.9999 59.5601 34.8031 59.7461 34.5568V35.2H61.2374V30.2309H60.0933ZM58.5394 33.9876C58.2167 33.966 57.9143 33.8226 57.6934 33.5864C57.4725 33.3502 57.3496 33.0388 57.3496 32.7155C57.3496 32.392 57.4725 32.0807 57.6934 31.8445C57.9143 31.6083 58.2167 31.4649 58.5394 31.4433C58.8621 31.4649 59.1645 31.6083 59.3855 31.8445C59.6064 32.0807 59.7293 32.392 59.7293 32.7155C59.7293 33.0388 59.6064 33.3502 59.3855 33.5864C59.1645 33.8226 58.8621 33.966 58.5394 33.9876Z" fill="white"/>
<path d="M64.2562 35.3142C65.5198 35.3142 66.2882 34.6539 66.2882 33.6066C66.2882 32.8894 65.8499 32.3999 64.9449 32.2007L64.0627 32.0014C63.7211 31.9218 63.5447 31.8136 63.5447 31.6144C63.5447 31.4152 63.7097 31.29 64.1139 31.29C64.5823 31.3063 65.0299 31.4878 65.3775 31.8022L66.1231 30.7094C65.5365 30.299 64.8286 30.0985 64.1139 30.1402C62.9299 30.1402 62.1331 30.7094 62.1331 31.7169C62.1253 32.0745 62.2519 32.422 62.488 32.6908C62.7241 32.9595 63.0524 33.1299 63.408 33.1683L64.2903 33.3789C64.7286 33.4757 64.8595 33.6066 64.8595 33.7774C64.8595 33.9481 64.6774 34.1132 64.2903 34.1132C63.7336 34.1022 63.1975 33.9014 62.7706 33.544L62.0249 34.6369C62.6778 35.131 63.484 35.3789 64.3017 35.337L64.2562 35.3142Z" fill="white"/>
<path d="M68.9671 35.3145C70.2307 35.3145 70.9991 34.6542 70.9991 33.6069C70.9991 32.8897 70.5609 32.4002 69.6558 32.201L68.7678 32.0017C68.4321 31.922 68.2556 31.814 68.2556 31.6147C68.2556 31.4155 68.4206 31.2903 68.8248 31.2903C69.2917 31.306 69.7377 31.4876 70.0827 31.8025L70.8284 30.7096C70.2445 30.298 69.5379 30.0973 68.8248 30.1405C67.6409 30.1405 66.844 30.7096 66.844 31.7172C66.8362 32.0748 66.9629 32.4223 67.199 32.6911C67.435 32.9598 67.7634 33.1302 68.119 33.1686L69.0012 33.3792C69.4395 33.476 69.5704 33.6069 69.5704 33.7776C69.5704 33.9484 69.394 34.1135 69.0012 34.1135C68.4446 34.1025 67.9083 33.9017 67.4814 33.5443L66.7358 34.6372C67.3887 35.1312 68.195 35.3792 69.0126 35.3372L68.9671 35.3145Z" fill="white"/>
<path d="M17.102 30.7363L15.894 35.2003H14.382L13.678 32.3043L12.95 35.2003H11.446L10.23 30.7363H11.598L12.23 33.9283L12.982 30.7363H14.43L15.19 33.9123L15.814 30.7363H17.102Z" fill="white"/>
<path d="M18.3136 30.273C18.0736 30.273 17.8762 30.2037 17.7216 30.065C17.5722 29.921 17.4976 29.745 17.4976 29.537C17.4976 29.3237 17.5722 29.1477 17.7216 29.009C17.8762 28.865 18.0736 28.793 18.3136 28.793C18.5482 28.793 18.7402 28.865 18.8896 29.009C19.0442 29.1477 19.1216 29.3237 19.1216 29.537C19.1216 29.745 19.0442 29.921 18.8896 30.065C18.7402 30.2037 18.5482 30.273 18.3136 30.273ZM18.9936 30.737V35.201H17.6256V30.737H18.9936Z" fill="white"/>
<path d="M22.4737 34.0404V35.2004H21.7777C21.2817 35.2004 20.8951 35.0804 20.6177 34.8404C20.3404 34.5952 20.2017 34.1978 20.2017 33.6484V31.8724H19.6577V30.7364H20.2017V29.6484H21.5697V30.7364H22.4657V31.8724H21.5697V33.6644C21.5697 33.7978 21.6017 33.8938 21.6657 33.9524C21.7297 34.0112 21.8364 34.0404 21.9857 34.0404H22.4737Z" fill="white"/>
<path d="M25.9779 30.6892C26.4899 30.6892 26.9006 30.86 27.2099 31.2012C27.5192 31.5372 27.6739 32.0012 27.6739 32.5932V35.2012H26.3139V32.7772C26.3139 32.4786 26.2366 32.2466 26.0819 32.0812C25.9272 31.916 25.7192 31.8332 25.4579 31.8332C25.1966 31.8332 24.9886 31.916 24.8339 32.0812C24.6792 32.2466 24.6019 32.4786 24.6019 32.7772V35.2012H23.2339V29.2812H24.6019V31.3372C24.7406 31.14 24.9299 30.9826 25.1699 30.8652C25.4099 30.748 25.6792 30.6892 25.9779 30.6892Z" fill="white"/>
</g>
<defs>
<clipPath id="clip0_3279_31881">
<rect width="134.4" height="48" fill="white" transform="translate(0.600098)"/>
</clipPath>
</defs>
</svg>
