<svg width="96" height="16" viewBox="0 0 96 16" fill="none" xmlns="http://www.w3.org/2000/svg">
<g clip-path="url(#clip0_3279_31877)">
<path d="M5.33628 11.81C2.69129 11.81 0.819577 10.9534 0 10.2327L1.75543 7.75428C2.85498 8.65543 4.21302 9.10653 5.33628 9.10653C6.29583 9.10653 6.71692 8.83588 6.71692 8.34019C6.71692 7.95755 6.38953 7.66404 5.35999 7.43904L3.27718 6.96619C1.24066 6.51398 0.281095 5.31933 0.281095 3.67465C0.281095 1.42124 2.15281 0.0917969 4.93777 0.0917969C7.09058 0.0917969 8.8223 0.722275 9.6656 1.44406L7.91015 3.92249C7.138 3.24636 6.01474 2.75068 4.93777 2.75068C4.04822 2.75068 3.65084 3.04417 3.65084 3.49421C3.65084 3.94424 4.07192 4.19317 4.8678 4.37253L6.9506 4.82365C9.07969 5.27475 10.1104 6.3781 10.1104 8.00103C10.1104 10.3218 8.30754 11.81 5.33628 11.81ZM17.8331 11.5839H21.3441V5.52261C21.3441 4.03554 22.0925 3.11157 23.5443 3.11157C24.9248 3.11157 25.6507 3.87793 25.6507 5.52261V11.585H29.1616V4.66602C29.1616 1.64625 27.5935 0.0917969 24.9022 0.0917969C23.358 0.0917969 22.1873 0.677707 21.3451 1.8267V1.106C21.3451 0.610311 21.0415 0.316812 20.5255 0.316812H17.8343V11.5839H17.8331ZM43.3901 0.316812V10.074C43.3901 14.3101 40.5352 16.0005 37.0243 16.0005C34.6842 16.0005 32.7413 15.4146 31.5719 14.4004L33.3971 11.7861C34.1694 12.5068 35.41 13.1612 37.0243 13.1612C38.8261 13.1612 39.8793 12.0567 39.8793 10.5251V9.80441C39.0371 10.8186 37.8203 11.2686 36.3221 11.2686C33.4908 11.2686 31.0333 8.88044 31.0333 5.68022C31.0333 2.48 33.4908 0.0917969 36.3221 0.0917969C37.8203 0.0917969 39.0835 0.633138 39.8793 1.78213V1.106C39.8793 0.610311 40.1841 0.316812 40.6989 0.316812H43.3901ZM39.9966 5.68022C39.9966 4.21598 38.8498 3.06592 37.2591 3.06592C35.7848 3.06592 34.5917 4.2149 34.5917 5.68022C34.5917 7.14446 35.7848 8.29452 37.2591 8.29452C38.8498 8.29452 39.9966 7.14446 39.9966 5.68022ZM58.7419 5.9509C58.7419 9.42177 56.2844 11.81 53.242 11.81C51.6503 11.81 50.3871 11.3589 49.4737 10.3458V15.732H45.9628V0.316812H48.6553C49.1701 0.316812 49.4749 0.610311 49.4749 1.106V1.78213C50.3408 0.633138 51.6515 0.0917969 53.2432 0.0917969C56.2856 0.0917969 58.7419 2.48 58.7419 5.9509ZM55.1848 5.9509C55.1848 4.26057 53.9442 3.06592 52.3062 3.06592C50.6444 3.06592 49.3576 4.26057 49.3576 5.9509C49.3576 7.64123 50.6444 8.83588 52.3062 8.83588C53.9452 8.83479 55.1848 7.64014 55.1848 5.9509ZM73.018 0.316812V11.5839H69.5071V10.1196C68.6412 11.2686 67.3305 11.81 65.7388 11.81C62.6964 11.81 60.2389 9.42177 60.2389 5.9509C60.2389 2.48 62.6964 0.0917969 65.7388 0.0917969C67.3305 0.0917969 68.6412 0.633138 69.5071 1.78213V1.106C69.5071 0.610311 69.8119 0.316812 70.3267 0.316812H73.018ZM69.6245 5.9509C69.6245 4.26057 68.3376 3.06592 66.6758 3.06592C65.0378 3.06592 63.7972 4.26057 63.7972 5.9509C63.7972 7.64123 65.0378 8.83588 66.6758 8.83588C68.3376 8.83479 69.6245 7.64014 69.6245 5.9509ZM80.1335 11.81C83.1058 11.81 84.9076 10.3229 84.9076 8.00212C84.9076 6.37918 83.8779 5.27584 81.7478 4.82473L79.665 4.37361C78.869 4.19317 78.448 3.94533 78.448 3.49529C78.448 3.04526 78.8454 2.75177 79.7349 2.75177C80.8119 2.75177 81.9351 3.24745 82.7072 3.92358L84.4627 1.44515C83.6205 0.724448 81.8888 0.0928839 79.7349 0.0928839C76.9499 0.0928839 75.0782 1.42232 75.0782 3.67574C75.0782 5.32042 76.0378 6.51507 78.0743 6.96619L80.1571 7.43904C81.1866 7.66404 81.5141 7.95755 81.5141 8.34019C81.5141 8.83588 81.0929 9.10653 80.1335 9.10653C79.0101 9.10653 77.6533 8.65543 76.5525 7.75428L74.7972 10.2327C75.6168 10.9534 77.4884 11.81 80.1335 11.81ZM91.2259 11.81C94.1982 11.81 96 10.3229 96 8.00212C96 6.37918 94.9705 5.27584 92.8402 4.82473L90.7574 4.37361C89.9615 4.19317 89.5405 3.94533 89.5405 3.49529C89.5405 3.04526 89.9378 2.75177 90.8273 2.75177C91.9043 2.75177 93.0277 3.24745 93.7998 3.92358L95.5552 1.44515C94.7132 0.724448 92.9812 0.0928839 90.8273 0.0928839C88.0425 0.0928839 86.1708 1.42232 86.1708 3.67574C86.1708 5.32042 87.1302 6.51507 89.1667 6.96619L91.2495 7.43904C92.2792 7.66404 92.6065 7.95755 92.6065 8.34019C92.6065 8.83588 92.1855 9.10653 91.2259 9.10653C90.1027 9.10653 88.7457 8.65543 87.6451 7.75428L85.8896 10.2327C86.7092 10.9534 88.5821 11.81 91.2259 11.81Z" fill="#F4333D"/>
<path d="M13.5733 3.92201C14.7202 3.92201 15.6098 3.06542 15.6098 1.961C15.6098 0.856581 14.7202 0 13.5733 0C12.4263 0 11.5367 0.856581 11.5367 1.961C11.5379 3.06542 12.4263 3.92201 13.5733 3.92201ZM11.373 11.5834H15.7723L14.8365 4.57531C14.1343 4.77859 13.0111 4.77859 12.3089 4.57531L11.373 11.5834Z" fill="black"/>
</g>
<defs>
<clipPath id="clip0_3279_31877">
<rect width="96" height="16" fill="white"/>
</clipPath>
</defs>
</svg>
