<svg width="127" height="126" viewBox="0 0 127 126" fill="none" xmlns="http://www.w3.org/2000/svg">
<path d="M60.8368 83.2584C60.3021 83.6258 59.6929 83.8032 59.0712 83.8032C58.4495 83.8032 57.8402 83.6258 57.3055 83.2584C56.2238 82.5237 30.6965 65.0411 21.2963 47.4952C18.9711 43.8213 17.7401 39.59 17.7401 35.2194C17.7401 22.7155 27.7247 12.5427 39.9972 12.5427C49.0244 12.5427 55.7015 20.1692 59.0712 24.1598C62.4408 20.1692 69.1179 12.5427 78.1451 12.5427C90.4176 12.5427 100.402 22.7155 100.402 35.2194C100.402 39.5774 99.1712 43.8213 96.8461 47.4952C87.4459 65.0538 61.9186 82.5237 60.8368 83.2584Z" fill="#FF54AA" stroke="#022624" stroke-width="2.03226" stroke-linejoin="round"/>
<path d="M45.1465 80.7683C45.1465 83.3982 42.2995 85.0419 40.022 83.7269L21.8742 73.2493C19.3818 71.8103 16.1948 72.6643 14.7559 75.1567C13.3169 77.649 14.1708 80.836 16.6632 82.275L38.1734 94.6942C42.7415 97.3317 47.9235 98.7202 53.1983 98.7202H84.34C86.9716 98.7202 89.5597 99.3916 91.8594 100.671L97.2759 103.683C105.158 108.067 114.848 102.368 114.848 93.3495C114.848 89.2127 112.687 85.3767 109.148 83.2342L98.8686 77.0106C92.0838 72.9028 84.0509 71.3639 76.2283 72.6734L47.9988 77.3989C46.3526 77.6744 45.1465 79.0992 45.1465 80.7683Z" fill="#FF8AC5" stroke="#022624" stroke-width="2"/>
<path d="M40.379 82.822C40.379 80.0166 42.4946 77.6627 45.2841 77.3643L71.081 74.605C75.225 74.1618 78.8065 77.4794 78.6812 81.6451C78.5695 85.3585 75.5269 88.3109 71.8119 88.3109H45.8679C42.8365 88.3109 40.379 85.8534 40.379 82.822Z" fill="#FF8AC5"/>
<path d="M73.0701 73.3091L45.1799 77.2165C42.427 77.6022 40.379 79.9571 40.379 82.7368V82.7368C40.379 85.8154 42.8722 88.2849 45.9419 88.0512C53.2368 87.4957 63.1598 86.1759 68.918 85.3483C70.3283 85.1457 71.3643 83.9356 71.3643 82.5108V82.5108" stroke="#022624" stroke-width="2" stroke-linecap="round"/>
</svg>
