<svg width="127" height="126" viewBox="0 0 127 126" fill="none" xmlns="http://www.w3.org/2000/svg">
<line x1="72.8809" y1="82.4155" x2="72.8809" y2="18.1767" stroke="#FF3399" stroke-width="2" stroke-linecap="round"/>
<path d="M72.8672 29.8223V24.8223C72.8672 22.0608 70.6286 19.8223 67.8672 19.8223V19.8223C65.1058 19.8223 62.8672 22.0608 62.8672 24.8223V29.8223" stroke="#FF3399" stroke-width="2" stroke-linecap="round"/>
<path d="M82.8672 18.176V18.176C82.8672 15.5248 80.7179 13.3755 78.0667 13.3755H77.8672C75.1058 13.3755 72.8672 15.6141 72.8672 18.3755V23.3755" stroke="#FF3399" stroke-width="2" stroke-linecap="round"/>
<path d="M111.33 102.944V96.0798C111.33 93.8707 109.539 92.0798 107.33 92.0798H15.5391C13.3299 92.0798 11.5391 93.8707 11.5391 96.0798V102.944" stroke="#FF8AC5" stroke-width="2" stroke-linecap="round"/>
<path d="M26.5352 82.4688L26.5352 92.0797" stroke="#FF8AC5" stroke-width="2" stroke-linecap="round"/>
<path d="M98.252 70.207L98.252 92.0798" stroke="#FF8AC5" stroke-width="2" stroke-linecap="round"/>
<path d="M10.541 79.4126C10.541 82.174 12.7795 84.4125 15.5408 84.4126L79.3849 84.4154C79.609 84.4154 79.816 84.3418 79.9829 84.2175L115.76 60.7951C118.096 59.2658 118.727 56.1195 117.161 53.8077L115.118 50.7914C113.638 48.6064 110.714 47.948 108.44 49.2876L74.2212 69.4466C73.7597 69.7185 73.2339 69.8619 72.6983 69.8618L15.5413 69.8591C12.7797 69.859 10.541 72.0976 10.541 74.8591V79.4126ZM79.9315 84.2511L79.9355 84.2485L79.9315 84.2511Z" fill="#FF54AA" stroke="#022624" stroke-width="2"/>
<path d="M15.4707 74.5786C15.4707 76.2354 16.8138 77.5786 18.4707 77.5786H77.3661C77.5891 77.5786 77.7948 77.5058 77.9611 77.3828L110.178 56.2912C111.58 55.3736 111.958 53.4858 111.019 52.0987L107.646 47.1189C106.757 45.8078 105.003 45.4128 103.639 46.2165L72.4832 64.5709C72.3294 64.6615 72.1542 64.7093 71.9757 64.7093H18.4707C16.8138 64.7093 15.4707 66.0524 15.4707 67.7093V74.5786ZM77.9162 77.4122L77.9163 77.4122L77.9162 77.4122Z" fill="#FF8AC5" stroke="#022624" stroke-width="2"/>
<rect x="15.1973" y="62.8516" width="53.2156" height="14.7112" rx="2" fill="#FF3399" stroke="#022624" stroke-width="2" stroke-linejoin="round"/>
<rect x="76.5898" y="54.3518" width="21.2367" height="6.69977" rx="2" transform="rotate(-30.9139 76.5898 54.3518)" fill="#FF54AA" stroke="#022624" stroke-width="2" stroke-linejoin="round"/>
<path d="M29.9199 59.7153C29.9199 58.0585 31.2631 56.7153 32.9199 56.7153H57.0892C58.7461 56.7153 60.0892 58.0585 60.0892 59.7153V75.5785H29.9199V59.7153Z" stroke="#FF8AC5" stroke-width="2"/>
<path d="M44.9395 57.0125V75.1501" stroke="#FF8AC5" stroke-width="2"/>
<circle cx="11.5417" cy="104.657" r="4.1355" fill="#FF54AA" stroke="#022624" stroke-width="2"/>
<circle cx="111.331" cy="104.657" r="4.1355" fill="#FF54AA" stroke="#022624" stroke-width="2"/>
<rect x="77.8672" y="18.3081" width="10" height="14" rx="2" fill="#FF8AC5" stroke="#022624" stroke-width="2"/>
</svg>
