<svg width="125" height="124" viewBox="0 0 125 124" fill="none" xmlns="http://www.w3.org/2000/svg">
<g clip-path="url(#clip0_1014_26610)">
<path d="M50.4744 39.5728L50.7283 39.319C53.8118 36.2354 60.4936 25.6271 50.7324 15.866C40.9712 6.10477 32.1305 14.1867 27.7391 18.5781L24.276 22.0412C24.2119 22.1052 24.1515 22.1705 24.0899 22.2371C24.0572 22.2673 24.0221 22.295 23.9895 22.3277L12.8302 33.4869C11.6988 34.6183 11.5485 36.4455 12.5562 37.7119C13.3347 38.6911 14.5291 39.078 15.6286 38.8745L15.8383 39.1543L15.8105 39.1821C14.6791 40.3135 14.5288 42.1407 15.5365 43.4071C16.3518 44.4327 17.6216 44.808 18.762 44.5366L19.5657 44.1025L17.5265 46.1417C16.3045 47.3637 16.3169 49.3586 17.5544 50.596C18.7918 51.8334 20.7866 51.8459 22.0087 50.6239L23.4157 49.2169L23.5972 49.4588C23.3822 50.4695 23.67 51.572 24.4619 52.364C25.6994 53.6014 27.6942 53.6139 28.9163 52.3918L33.9205 47.3875C33.1768 48.6576 33.4075 50.3461 34.6096 51.3814C35.8753 52.4706 37.7745 52.3511 38.9397 51.1859L50.0942 40.0314C50.2368 39.8888 50.3623 39.7339 50.4708 39.5716L50.4744 39.5728Z" fill="#FF8AC5"/>
<path d="M18.7651 44.5366C17.6234 44.8068 16.3549 44.4303 15.5397 43.4072C14.5319 42.1408 14.6835 40.3124 15.8137 39.1822L16.3431 38.6527L26.2598 28.7361" stroke="#022624" stroke-width="2" stroke-linecap="round" stroke-linejoin="round"/>
<path d="M30.6319 33.0387L17.529 46.1417C16.3069 47.3638 16.3194 49.3586 17.5568 50.596C18.7942 51.8335 20.7891 51.8459 22.0111 50.6239L23.8049 48.8301L35.2205 37.4146" stroke="#022624" stroke-width="2" stroke-linecap="round" stroke-linejoin="round"/>
<path d="M15.6298 38.8733C14.5303 39.0768 13.3359 38.6898 12.5574 37.7107C11.5497 36.4443 11.7012 34.6159 12.8314 33.4857L23.9907 22.3264C24.0233 22.2938 24.0584 22.2661 24.0911 22.2359C24.1515 22.1705 24.2131 22.104 24.2772 22.04L27.7403 18.5769C32.1305 14.1867 40.9712 6.10477 50.7324 15.866C60.4936 25.6271 53.8118 36.2354 50.7283 39.319L50.4744 39.5728C50.3647 39.7339 50.2416 39.8888 50.0978 40.0327L38.9434 51.1871C37.7769 52.3536 35.879 52.4718 34.6133 51.3826C33.3476 50.2934 33.1817 48.6576 33.9242 47.3888L28.9199 52.3931C27.6979 53.6151 25.703 53.6026 24.4656 52.3652C23.6725 51.5721 23.3858 50.4707 23.6009 49.4601" stroke="#022624" stroke-width="2" stroke-linecap="round" stroke-linejoin="round"/>
<path d="M36.6858 44.5537L42.7368 38.5027C42.7368 38.5027 46.9878 34.614 40.8778 28.5039C40.8778 28.5039 35.6772 24.089 41.7463 18.0198" stroke="#022624" stroke-width="2" stroke-linecap="round" stroke-linejoin="round"/>
</g>
<g clip-path="url(#clip1_1014_26610)">
<path d="M94.9561 20.5549L94.7023 20.301C91.6188 17.2175 81.07 10.4762 71.6046 19.9416C62.1392 29.407 70.2326 38.2362 74.624 42.6276L78.0871 46.0907C78.1511 46.1548 78.2164 46.2153 78.2828 46.277C78.313 46.3096 78.3409 46.3446 78.3736 46.3772L89.5328 57.5365C90.6642 58.6679 92.466 58.8436 93.6979 57.8704C94.6505 57.1185 95.0135 55.948 94.7963 54.8621L95.0688 54.6598L95.0966 54.6876C96.228 55.819 98.0297 55.9948 99.2617 55.0215C100.259 54.2341 100.61 52.9893 100.325 51.862L99.8855 51.0639L101.925 53.1031C103.147 54.3251 105.111 54.3431 106.311 53.1431C107.511 51.9432 107.493 49.9788 106.271 48.7567L104.864 47.3497L105.1 47.1746C106.098 47.4017 107.18 47.1349 107.948 46.367C109.148 45.1671 109.13 43.2026 107.908 41.9806L102.903 36.9763C104.165 37.728 105.825 37.5264 106.826 36.3582C107.88 35.1282 107.733 33.256 106.568 32.0907L95.4136 20.9363C95.2709 20.7937 95.1165 20.6677 94.955 20.5584L94.9561 20.5549Z" fill="#FF8AC5"/>
<path d="M100.325 51.8596C100.608 52.9881 100.257 54.2317 99.2616 55.0191C98.0297 55.9924 96.2267 55.8154 95.0965 54.6852L94.5671 54.1558L84.6504 44.2391" stroke="#022624" stroke-width="2" stroke-linecap="round" stroke-linejoin="round"/>
<path d="M88.821 39.9977L101.924 53.1007C103.146 54.3227 105.11 54.3407 106.31 53.1407C107.51 51.9408 107.492 49.9764 106.27 48.7543L104.476 46.9605L93.061 35.545" stroke="#022624" stroke-width="2" stroke-linecap="round" stroke-linejoin="round"/>
<path d="M94.7951 54.8609C95.0123 55.9468 94.6493 57.1173 93.6967 57.8691C92.4648 58.8424 90.6618 58.6655 89.5316 57.5353L78.3723 46.376C78.3397 46.3434 78.3118 46.3084 78.2816 46.2758C78.2164 46.2153 78.1499 46.1536 78.0859 46.0895L74.6228 42.6264C70.2326 38.2362 62.1392 29.407 71.6046 19.9416C81.07 10.4762 91.6188 17.2175 94.7023 20.301L94.9562 20.5549C95.1165 20.6653 95.2709 20.7889 95.4147 20.9327L106.569 32.0872C107.736 33.2536 107.881 35.1246 106.827 36.3546C105.774 37.5846 104.165 37.7233 102.904 36.9727L107.909 41.977C109.131 43.1991 109.149 45.1635 107.949 46.3634C107.18 47.1325 106.099 47.3981 105.101 47.171" stroke="#022624" stroke-width="2" stroke-linecap="round" stroke-linejoin="round"/>
<path d="M100.07 34.21L94.0186 28.159C94.0186 28.159 90.1244 23.9134 84.1995 29.8384C84.1995 29.8384 79.9303 34.8933 73.8611 28.8241" stroke="#022624" stroke-width="2" stroke-linecap="round" stroke-linejoin="round"/>
</g>
<g clip-path="url(#clip2_1014_26610)">
<path d="M41.2162 74.295L40.9623 74.0411C37.8788 70.9576 27.33 64.2163 17.8646 73.6817C8.39918 83.1471 16.4926 91.9763 20.884 96.3678L24.3471 99.8308C24.4111 99.8949 24.4764 99.9554 24.5428 100.017C24.5731 100.05 24.6009 100.085 24.6336 100.117L35.7928 111.277C36.9242 112.408 38.726 112.584 39.958 111.61C40.9105 110.859 41.2735 109.688 41.0563 108.602L41.3288 108.4L41.3566 108.428C42.488 109.559 44.2898 109.735 45.5217 108.762C46.5194 107.974 46.8697 106.729 46.5852 105.602L46.1455 104.804L48.1847 106.843C49.4067 108.065 51.3712 108.083 52.5711 106.883C53.771 105.683 53.7531 103.719 52.5311 102.497L51.1241 101.09L51.3596 100.915C52.3582 101.142 53.4397 100.875 54.2076 100.107C55.4075 98.9072 55.3896 96.9428 54.1675 95.7207L49.1633 90.7164C50.4254 91.4682 52.0848 91.2665 53.0862 90.0983C54.1397 88.8683 53.9933 86.9961 52.828 85.8309L41.6736 74.6764C41.5309 74.5338 41.3765 74.4078 41.215 74.2986L41.2162 74.295Z" fill="#FF8AC5"/>
<path d="M46.5851 105.6C46.8685 106.728 46.5169 107.972 45.5216 108.759C44.2897 109.732 42.4867 109.556 41.3565 108.425L40.8271 107.896L30.9104 97.9792" stroke="#022624" stroke-width="2" stroke-linecap="round" stroke-linejoin="round"/>
<path d="M35.081 93.7378L48.1839 106.841C49.406 108.063 51.3704 108.081 52.5704 106.881C53.7703 105.681 53.7524 103.716 52.5303 102.494L50.7365 100.701L39.321 89.2851" stroke="#022624" stroke-width="2" stroke-linecap="round" stroke-linejoin="round"/>
<path d="M41.0551 108.601C41.2723 109.687 40.9093 110.857 39.9568 111.609C38.7248 112.583 36.9218 112.406 35.7916 111.275L24.6324 100.116C24.5997 100.083 24.5719 100.048 24.5416 100.016C24.4764 99.9554 24.4099 99.8937 24.3459 99.8296L20.8828 96.3665C16.4926 91.9763 8.39918 83.1471 17.8646 73.6817C27.33 64.2163 37.8788 70.9576 40.9623 74.0411L41.2162 74.295C41.3765 74.4054 41.5309 74.529 41.6747 74.6728L52.8292 85.8273C53.9956 86.9937 54.1409 88.8647 53.0873 90.0947C52.0338 91.3247 50.4253 91.4634 49.1645 90.7129L54.1687 95.7171C55.3908 96.9392 55.4087 98.9036 54.2088 100.104C53.4397 100.873 52.3594 101.138 51.3608 100.911" stroke="#022624" stroke-width="2" stroke-linecap="round" stroke-linejoin="round"/>
<path d="M46.3297 87.9501L40.2787 81.8991C40.2787 81.8991 36.3844 77.6535 30.4595 83.5785C30.4595 83.5785 26.1903 88.6334 20.1211 82.5642" stroke="#022624" stroke-width="2" stroke-linecap="round" stroke-linejoin="round"/>
</g>
<g clip-path="url(#clip3_1014_26610)">
<path d="M75.9396 85.013L75.6858 85.2668C72.6023 88.3504 65.9205 98.9587 75.6816 108.72C85.4428 118.481 94.2836 110.399 98.675 106.008L102.138 102.545C102.202 102.481 102.263 102.415 102.324 102.349C102.357 102.319 102.392 102.291 102.425 102.258L113.584 91.0989C114.715 89.9675 114.866 88.1403 113.858 86.8739C113.079 85.8948 111.885 85.5078 110.785 85.7114L110.576 85.4315L110.604 85.4037C111.735 84.2723 111.885 82.4451 110.878 81.1787C110.062 80.1531 108.793 79.7779 107.652 80.0493L106.848 80.4833L108.888 78.4441C110.11 77.2221 110.097 75.2272 108.86 73.9898C107.622 72.7524 105.627 72.7399 104.405 73.962L102.998 75.3689L102.817 75.127C103.032 74.1163 102.744 73.0138 101.952 72.2219C100.715 70.9844 98.7198 70.972 97.4978 72.194L92.4935 77.1983C93.2373 75.9282 93.0065 74.2397 91.8044 73.2044C90.5387 72.1152 88.6396 72.2347 87.4743 73.3999L76.3199 84.5544C76.1773 84.697 76.0518 84.8519 75.9433 85.0142L75.9396 85.013Z" fill="#FF8AC5"/>
<path d="M107.649 80.0492C108.791 79.779 110.059 80.1555 110.874 81.1786C111.882 82.445 111.731 84.2734 110.6 85.4036L110.071 85.9331L100.154 95.8497" stroke="#022624" stroke-width="2" stroke-linecap="round" stroke-linejoin="round"/>
<path d="M95.7822 91.5471L108.885 78.4441C110.107 77.2221 110.095 75.2272 108.857 73.9898C107.62 72.7523 105.625 72.7399 104.403 73.9619L102.609 75.7557L91.1936 87.1713" stroke="#022624" stroke-width="2" stroke-linecap="round" stroke-linejoin="round"/>
<path d="M110.784 85.7126C111.884 85.509 113.078 85.896 113.857 86.8751C114.864 88.1415 114.713 89.9699 113.583 91.1001L102.423 102.259C102.391 102.292 102.356 102.32 102.323 102.35C102.263 102.415 102.201 102.482 102.137 102.546L98.6738 106.009C94.2836 110.399 85.4428 118.481 75.6816 108.72C65.9205 98.9587 72.6023 88.3504 75.6858 85.2668L75.9396 85.013C76.0493 84.8519 76.1724 84.697 76.3163 84.5531L87.4707 73.3987C88.6371 72.2323 90.5351 72.114 91.8008 73.2032C93.0665 74.2924 93.2324 75.9282 92.4899 77.197L97.4941 72.1928C98.7162 70.9707 100.711 70.9832 101.948 72.2206C102.742 73.0138 103.028 74.1151 102.813 75.1257" stroke="#022624" stroke-width="2" stroke-linecap="round" stroke-linejoin="round"/>
<path d="M89.7283 80.0321L83.6773 86.0831C83.6773 86.0831 79.4262 89.9719 85.5363 96.0819C85.5363 96.0819 90.7369 100.497 84.6677 106.566" stroke="#022624" stroke-width="2" stroke-linecap="round" stroke-linejoin="round"/>
</g>
<path d="M63.1408 75.2936C62.9468 75.4328 62.7256 75.5 62.5 75.5C62.2744 75.5 62.0532 75.4328 61.8592 75.2936C61.4666 75.0152 52.2022 68.3912 48.7906 61.7432C47.9468 60.3512 47.5 58.748 47.5 57.092C47.5 52.3544 51.1236 48.5 55.5776 48.5C58.8538 48.5 61.2771 51.3896 62.5 52.9016C63.7229 51.3896 66.1462 48.5 69.4224 48.5C73.8764 48.5 77.5 52.3544 77.5 57.092C77.5 58.7432 77.0532 60.3512 76.2094 61.7432C72.7978 68.396 63.5334 75.0152 63.1408 75.2936Z" fill="#FF3399"/>
<defs>
<clipPath id="clip0_1014_26610">
<rect width="33" height="50" fill="white" transform="translate(40.5801 4.31018) rotate(45)"/>
</clipPath>
<clipPath id="clip1_1014_26610">
<rect width="32" height="50" fill="white" transform="translate(60.3787 29.766) rotate(-45)"/>
</clipPath>
<clipPath id="clip2_1014_26610">
<rect width="32" height="50" fill="white" transform="translate(6.63867 83.5061) rotate(-45)"/>
</clipPath>
<clipPath id="clip3_1014_26610">
<rect width="33" height="50" fill="white" transform="translate(85.834 120.276) rotate(-135)"/>
</clipPath>
</defs>
</svg>
