<svg width="127" height="126" viewBox="0 0 127 126" fill="none" xmlns="http://www.w3.org/2000/svg">
<rect x="11.3193" y="35.7144" width="104.362" height="54.5714" rx="8" fill="#FF8AC5"/>
<path d="M94.0253 61.9837C94.5921 62.5523 94.5921 63.4477 94.0253 64.0163C90.5527 67.5007 78.2027 78.75 63.5 78.75C48.7973 78.75 36.4474 67.5007 32.9747 64.0163C32.4079 63.4477 32.4079 62.5523 32.9747 61.9837C36.4473 58.4993 48.7973 47.25 63.5 47.25C78.2027 47.25 90.5526 58.4993 94.0253 61.9837Z" fill="#FF3399" stroke="#022624" stroke-width="2.03175"/>
<circle cx="63.5018" cy="62.9999" r="9.45" fill="#FFB0D8"/>
<circle cx="63.4982" cy="63.0001" r="6.3" fill="#FF3399"/>
<circle cx="67.4357" cy="59.0626" r="2.3625" fill="#FFB0D8"/>
<path fill-rule="evenodd" clip-rule="evenodd" d="M19.0664 47.7144C16.8573 47.7144 15.0664 45.9235 15.0664 43.7144L15.0664 23.7144C15.0664 21.5052 16.8573 19.7144 19.0664 19.7144L39.0664 19.7144C41.2755 19.7144 43.0664 21.5052 43.0664 23.7144C43.0664 25.9235 41.2755 27.7144 39.0664 27.7144L23.0664 27.7144L23.0664 43.7144C23.0664 45.9235 21.2755 47.7144 19.0664 47.7144Z" fill="#FF54AA" stroke="#022624" stroke-width="2.025" stroke-linecap="round" stroke-linejoin="round"/>
<path fill-rule="evenodd" clip-rule="evenodd" d="M107.931 79.7144C110.14 79.7144 111.931 81.5052 111.931 83.7144L111.931 103.714C111.931 105.923 110.14 107.714 107.931 107.714L87.9307 107.714C85.7215 107.714 83.9307 105.923 83.9307 103.714C83.9307 101.505 85.7215 99.7144 87.9307 99.7144L103.931 99.7144L103.931 83.7144C103.931 81.5052 105.722 79.7144 107.931 79.7144Z" fill="#FF54AA" stroke="#022624" stroke-width="2.025" stroke-linecap="round" stroke-linejoin="round"/>
<path fill-rule="evenodd" clip-rule="evenodd" d="M83.9287 23.7144C83.9287 21.5052 85.7196 19.7144 87.9287 19.7144H107.929C110.138 19.7144 111.929 21.5052 111.929 23.7144V43.7144C111.929 45.9235 110.138 47.7144 107.929 47.7144C105.72 47.7144 103.929 45.9235 103.929 43.7144V27.7144H87.9287C85.7196 27.7144 83.9287 25.9235 83.9287 23.7144Z" fill="#FF54AA" stroke="#022624" stroke-width="2.025" stroke-linecap="round" stroke-linejoin="round"/>
<path fill-rule="evenodd" clip-rule="evenodd" d="M43.0684 103.714C43.0684 105.923 41.2775 107.714 39.0684 107.714L19.0684 107.714C16.8592 107.714 15.0684 105.923 15.0684 103.714L15.0684 83.7144C15.0684 81.5052 16.8592 79.7144 19.0684 79.7144C21.2775 79.7144 23.0684 81.5052 23.0684 83.7144L23.0684 99.7144L39.0684 99.7144C41.2775 99.7144 43.0684 101.505 43.0684 103.714Z" fill="#FF54AA" stroke="#022624" stroke-width="2.025" stroke-linecap="round" stroke-linejoin="round"/>
</svg>
