<svg width="127" height="126" viewBox="0 0 127 126" fill="none" xmlns="http://www.w3.org/2000/svg">
<circle cx="100.004" cy="65.8744" r="15" fill="#FF54AA" stroke="#022624" stroke-width="2"/>
<path fill-rule="evenodd" clip-rule="evenodd" d="M32.893 7.7936C33.2929 6.76395 34.4518 6.25341 35.4814 6.65328C44.7169 10.24 52.5127 17.6758 58.4648 25.3228C64.4345 32.9924 68.6982 41.0666 70.816 46.2143C71.2362 47.2358 70.7488 48.4046 69.7273 48.8248C68.7058 49.245 67.537 48.7576 67.1168 47.7361C65.1262 42.8976 61.0392 35.1425 55.3083 27.7797C49.5598 20.3942 42.3052 13.5944 34.0333 10.382C33.0037 9.9821 32.4932 8.82325 32.893 7.7936Z" fill="#FF54AA" stroke="#022624" stroke-width="2" stroke-linecap="round" stroke-linejoin="round"/>
<path fill-rule="evenodd" clip-rule="evenodd" d="M53.9986 7.7936C53.5987 6.76395 52.4398 6.25341 51.4102 6.65328C42.1747 10.24 34.3789 17.6758 28.4268 25.3228C22.4571 32.9924 18.1934 41.0666 16.0756 46.2143C15.6554 47.2358 16.1428 48.4046 17.1643 48.8248C18.1858 49.245 19.3546 48.7576 19.7748 47.7361C21.7654 42.8976 25.8524 35.1425 31.5833 27.7797C37.3318 20.3942 44.5864 13.5944 52.8583 10.382C53.8879 9.9821 54.3984 8.82325 53.9986 7.7936Z" fill="#FF54AA" stroke="#022624" stroke-width="2" stroke-linecap="round" stroke-linejoin="round"/>
<circle cx="100.004" cy="65.8744" r="7.63281" fill="#FF8AC5" stroke="#022624" stroke-width="2"/>
<mask id="path-5-outside-1_1014_26936" maskUnits="userSpaceOnUse" x="11.9248" y="41.0646" width="93" height="78" fill="black">
<rect fill="white" x="11.9248" y="41.0646" width="93" height="78"/>
<path fill-rule="evenodd" clip-rule="evenodd" d="M21.9248 47.0646C21.9248 44.8554 20.1339 43.0646 17.9248 43.0646C15.7157 43.0646 13.9248 44.8554 13.9248 47.0646V53.4145C13.9248 69.1559 26.2454 82.0197 41.7695 82.8887V105.342C41.7695 111.478 46.7437 116.452 52.8797 116.452C59.0157 116.452 63.9899 111.478 63.9899 105.342V97.4757C63.9899 95.3887 65.6817 93.6969 67.7687 93.6969C69.8557 93.6969 71.5475 95.3887 71.5475 97.4757V103.074C71.5475 110.462 77.5367 116.452 84.9249 116.452H86.9438C95.4469 116.452 102.34 109.559 102.34 101.055V67.5475C102.34 66.443 101.445 65.5475 100.34 65.5475C99.2355 65.5475 98.34 66.443 98.34 67.5475V101.055C98.34 107.349 93.2378 112.452 86.9438 112.452H84.9249C79.7459 112.452 75.5475 108.253 75.5475 103.074V97.4757C75.5475 93.1796 72.0648 89.6969 67.7687 89.6969C63.4726 89.6969 59.9899 93.1796 59.9899 97.4757V105.342C59.9899 109.268 56.8066 112.452 52.8797 112.452C48.9529 112.452 45.7695 109.268 45.7695 105.342V82.8454C60.9873 81.6604 72.9668 68.9364 72.9668 53.4145V47.0646C72.9668 44.8554 71.1759 43.0646 68.9668 43.0646C66.7577 43.0646 64.9668 44.8554 64.9668 47.0646V53.4145C64.9668 65.3002 55.3315 74.9355 43.4458 74.9355C31.5601 74.9355 21.9248 65.3002 21.9248 53.4145V47.0646Z"/>
</mask>
<path fill-rule="evenodd" clip-rule="evenodd" d="M21.9248 47.0646C21.9248 44.8554 20.1339 43.0646 17.9248 43.0646C15.7157 43.0646 13.9248 44.8554 13.9248 47.0646V53.4145C13.9248 69.1559 26.2454 82.0197 41.7695 82.8887V105.342C41.7695 111.478 46.7437 116.452 52.8797 116.452C59.0157 116.452 63.9899 111.478 63.9899 105.342V97.4757C63.9899 95.3887 65.6817 93.6969 67.7687 93.6969C69.8557 93.6969 71.5475 95.3887 71.5475 97.4757V103.074C71.5475 110.462 77.5367 116.452 84.9249 116.452H86.9438C95.4469 116.452 102.34 109.559 102.34 101.055V67.5475C102.34 66.443 101.445 65.5475 100.34 65.5475C99.2355 65.5475 98.34 66.443 98.34 67.5475V101.055C98.34 107.349 93.2378 112.452 86.9438 112.452H84.9249C79.7459 112.452 75.5475 108.253 75.5475 103.074V97.4757C75.5475 93.1796 72.0648 89.6969 67.7687 89.6969C63.4726 89.6969 59.9899 93.1796 59.9899 97.4757V105.342C59.9899 109.268 56.8066 112.452 52.8797 112.452C48.9529 112.452 45.7695 109.268 45.7695 105.342V82.8454C60.9873 81.6604 72.9668 68.9364 72.9668 53.4145V47.0646C72.9668 44.8554 71.1759 43.0646 68.9668 43.0646C66.7577 43.0646 64.9668 44.8554 64.9668 47.0646V53.4145C64.9668 65.3002 55.3315 74.9355 43.4458 74.9355C31.5601 74.9355 21.9248 65.3002 21.9248 53.4145V47.0646Z" fill="#FF8AC5"/>
<path d="M41.7695 82.8887H43.7695C43.7695 81.8276 42.9408 80.9511 41.8813 80.8918L41.7695 82.8887ZM45.7695 82.8454L45.6143 80.8514C44.5731 80.9325 43.7695 81.801 43.7695 82.8454H45.7695ZM17.9248 45.0646C19.0294 45.0646 19.9248 45.96 19.9248 47.0646H23.9248C23.9248 43.7509 21.2385 41.0646 17.9248 41.0646V45.0646ZM15.9248 47.0646C15.9248 45.96 16.8202 45.0646 17.9248 45.0646V41.0646C14.6111 41.0646 11.9248 43.7509 11.9248 47.0646H15.9248ZM15.9248 53.4145V47.0646H11.9248V53.4145H15.9248ZM41.8813 80.8918C27.4107 80.0818 15.9248 68.0888 15.9248 53.4145H11.9248C11.9248 70.223 25.0802 83.9576 41.6578 84.8856L41.8813 80.8918ZM43.7695 105.342V82.8887H39.7695V105.342H43.7695ZM52.8797 114.452C47.8483 114.452 43.7695 110.373 43.7695 105.342H39.7695C39.7695 112.582 45.6392 118.452 52.8797 118.452V114.452ZM61.9899 105.342C61.9899 110.373 57.9111 114.452 52.8797 114.452V118.452C60.1203 118.452 65.9899 112.582 65.9899 105.342H61.9899ZM61.9899 97.4757V105.342H65.9899V97.4757H61.9899ZM67.7687 91.6969C64.5771 91.6969 61.9899 94.2841 61.9899 97.4757H65.9899C65.9899 96.4933 66.7863 95.6969 67.7687 95.6969V91.6969ZM73.5475 97.4757C73.5475 94.2841 70.9602 91.6969 67.7687 91.6969V95.6969C68.7511 95.6969 69.5475 96.4933 69.5475 97.4757H73.5475ZM73.5475 103.074V97.4757H69.5475V103.074H73.5475ZM84.9249 114.452C78.6413 114.452 73.5475 109.358 73.5475 103.074H69.5475C69.5475 111.567 76.4322 118.452 84.9249 118.452V114.452ZM86.9438 114.452H84.9249V118.452H86.9438V114.452ZM100.34 101.055C100.34 108.454 94.3423 114.452 86.9438 114.452V118.452C96.5515 118.452 104.34 110.663 104.34 101.055H100.34ZM100.34 67.5475V101.055H104.34V67.5475H100.34ZM100.34 67.5475H104.34C104.34 65.3384 102.549 63.5475 100.34 63.5475V67.5475ZM100.34 67.5475V63.5475C98.1309 63.5475 96.34 65.3384 96.34 67.5475H100.34ZM100.34 101.055V67.5475H96.34V101.055H100.34ZM86.9438 114.452C94.3423 114.452 100.34 108.454 100.34 101.055H96.34C96.34 106.245 92.1332 110.452 86.9438 110.452V114.452ZM84.9249 114.452H86.9438V110.452H84.9249V114.452ZM73.5475 103.074C73.5475 109.358 78.6413 114.452 84.9249 114.452V110.452C80.8505 110.452 77.5475 107.149 77.5475 103.074H73.5475ZM73.5475 97.4757V103.074H77.5475V97.4757H73.5475ZM67.7687 91.6969C70.9602 91.6969 73.5475 94.2841 73.5475 97.4757H77.5475C77.5475 92.075 73.1694 87.6969 67.7687 87.6969V91.6969ZM61.9899 97.4757C61.9899 94.2841 64.5771 91.6969 67.7687 91.6969V87.6969C62.368 87.6969 57.9899 92.075 57.9899 97.4757H61.9899ZM61.9899 105.342V97.4757H57.9899V105.342H61.9899ZM52.8797 114.452C57.9111 114.452 61.9899 110.373 61.9899 105.342H57.9899C57.9899 108.164 55.702 110.452 52.8797 110.452V114.452ZM43.7695 105.342C43.7695 110.373 47.8483 114.452 52.8797 114.452V110.452C50.0574 110.452 47.7695 108.164 47.7695 105.342H43.7695ZM43.7695 82.8454V105.342H47.7695V82.8454H43.7695ZM70.9668 53.4145C70.9668 67.8839 59.7991 79.7469 45.6143 80.8514L45.9248 84.8393C62.1756 83.574 74.9668 69.989 74.9668 53.4145H70.9668ZM70.9668 47.0646V53.4145H74.9668V47.0646H70.9668ZM68.9668 45.0646C70.0714 45.0646 70.9668 45.96 70.9668 47.0646H74.9668C74.9668 43.7509 72.2805 41.0646 68.9668 41.0646V45.0646ZM66.9668 47.0646C66.9668 45.96 67.8622 45.0646 68.9668 45.0646V41.0646C65.6531 41.0646 62.9668 43.7509 62.9668 47.0646H66.9668ZM66.9668 53.4145V47.0646H62.9668V53.4145H66.9668ZM43.4458 76.9355C56.4361 76.9355 66.9668 66.4048 66.9668 53.4145H62.9668C62.9668 64.1956 54.227 72.9355 43.4458 72.9355V76.9355ZM19.9248 53.4145C19.9248 66.4048 30.4555 76.9355 43.4458 76.9355V72.9355C32.6647 72.9355 23.9248 64.1956 23.9248 53.4145H19.9248ZM19.9248 47.0646V53.4145H23.9248V47.0646H19.9248Z" fill="#022624" mask="url(#path-5-outside-1_1014_26936)"/>
<rect x="28.7246" y="2.2959" width="10" height="8" rx="4" transform="rotate(19.7173 28.7246 2.2959)" fill="#FF3399" stroke="#022624" stroke-width="2"/>
<rect width="10" height="8" rx="4" transform="matrix(-0.941369 0.337379 0.337379 0.941369 57.0879 2.2959)" fill="#FF3399" stroke="#022624" stroke-width="2"/>
</svg>
