<svg width="127" height="126" viewBox="0 0 127 126" fill="none" xmlns="http://www.w3.org/2000/svg">
<path d="M14.3125 28.0546C14.3125 23.9732 17.6211 20.6646 21.7025 20.6646H99.2975C103.379 20.6646 106.688 23.9732 106.688 28.0546V42.8346H14.3125V28.0546Z" fill="#FF8AC5" stroke="#022624" stroke-width="1.8475"/>
<path d="M14.3125 41.9108H106.688V97.3378C106.688 101.419 103.379 104.728 99.2975 104.728H21.7025C17.6211 104.728 14.3125 101.419 14.3125 97.3378V41.9108Z" fill="#FFB0D8" stroke="#022624" stroke-width="1.8475"/>
<rect x="30.0137" y="13.2744" width="7.39" height="14.78" rx="3.695" fill="#FFB0D8" stroke="#022624" stroke-width="1.8475"/>
<rect x="83.5918" y="13.2745" width="7.39" height="14.78" rx="3.695" fill="#FFB0D8" stroke="#022624" stroke-width="1.8475"/>
<rect x="21.7031" y="49.3008" width="11.085" height="11.085" rx="1.8475" fill="#FF8AC5"/>
<rect x="38.3306" y="49.3008" width="11.085" height="11.085" rx="1.8475" fill="#FF8AC5"/>
<rect x="54.9581" y="49.3008" width="11.085" height="11.085" rx="1.8475" fill="#FF8AC5"/>
<rect x="71.5856" y="49.3008" width="11.085" height="11.085" rx="1.8475" fill="#FF8AC5"/>
<rect x="88.2131" y="49.3008" width="11.085" height="11.085" rx="1.8475" fill="#FF8AC5"/>
<rect x="21.7031" y="86.2505" width="11.085" height="11.085" rx="1.8475" fill="#FF8AC5"/>
<rect x="37.4069" y="86.2505" width="11.085" height="11.085" rx="1.8475" fill="#FF8AC5"/>
<rect x="53.1106" y="86.2505" width="11.085" height="11.085" rx="1.8475" fill="#FF8AC5"/>
<rect x="21.7031" y="67.7759" width="11.085" height="11.085" rx="1.8475" fill="#FF8AC5"/>
<rect x="38.3306" y="67.7759" width="11.085" height="11.085" rx="1.8475" fill="#FF8AC5"/>
<rect x="54.9581" y="67.7759" width="11.085" height="11.085" rx="1.8475" fill="#FF8AC5"/>
<rect x="71.5856" y="67.7759" width="11.085" height="11.085" rx="1.8475" fill="#FF8AC5"/>
<rect x="88.2131" y="67.7759" width="11.085" height="11.085" rx="1.8475" fill="#FF8AC5"/>
<circle cx="90.6895" cy="90.7251" r="22" fill="#FF3399" stroke="#022624" stroke-width="2"/>
<path d="M89.74 78.7614C90.0394 77.8401 91.3428 77.8401 91.6422 78.7614L93.8098 85.4327C93.9437 85.8447 94.3276 86.1236 94.7608 86.1236H101.775C102.744 86.1236 103.147 87.3633 102.363 87.9327L96.6883 92.0557C96.3378 92.3104 96.1911 92.7617 96.325 93.1738L98.4926 99.845C98.792 100.766 97.7375 101.532 96.9538 100.963L91.2789 96.84C90.9284 96.5853 90.4538 96.5853 90.1033 96.84L84.4284 100.963C83.6447 101.532 82.5902 100.766 82.8896 99.845L85.0572 93.1738C85.1911 92.7617 85.0444 92.3104 84.6939 92.0557L79.019 87.9327C78.2353 87.3633 78.6381 86.1236 79.6068 86.1236H86.6214C87.0546 86.1236 87.4385 85.8447 87.5724 85.4327L89.74 78.7614Z" fill="#FFB0D8"/>
</svg>
