<svg width="127" height="126" viewBox="0 0 127 126" fill="none" xmlns="http://www.w3.org/2000/svg">
<mask id="path-1-inside-1_1014_26958" fill="white">
<path fill-rule="evenodd" clip-rule="evenodd" d="M48.1928 8.59888C45.9836 8.59888 44.1928 10.3897 44.1928 12.5989V41.9189H14.8733C12.6642 41.9189 10.8733 43.7098 10.8733 45.9189V69.2789C10.8733 71.4881 12.6641 73.2789 14.8733 73.2789H44.1928V102.599C44.1928 104.808 45.9836 106.599 48.1928 106.599H71.5528C73.7619 106.599 75.5528 104.808 75.5528 102.599V73.2789H104.873C107.082 73.2789 108.873 71.4881 108.873 69.2789V45.9189C108.873 43.7098 107.082 41.9189 104.873 41.9189H75.5528V12.5989C75.5528 10.3897 73.7619 8.59888 71.5528 8.59888H48.1928Z"/>
</mask>
<path fill-rule="evenodd" clip-rule="evenodd" d="M48.1928 8.59888C45.9836 8.59888 44.1928 10.3897 44.1928 12.5989V41.9189H14.8733C12.6642 41.9189 10.8733 43.7098 10.8733 45.9189V69.2789C10.8733 71.4881 12.6641 73.2789 14.8733 73.2789H44.1928V102.599C44.1928 104.808 45.9836 106.599 48.1928 106.599H71.5528C73.7619 106.599 75.5528 104.808 75.5528 102.599V73.2789H104.873C107.082 73.2789 108.873 71.4881 108.873 69.2789V45.9189C108.873 43.7098 107.082 41.9189 104.873 41.9189H75.5528V12.5989C75.5528 10.3897 73.7619 8.59888 71.5528 8.59888H48.1928Z" fill="#FF8AC5"/>
<path d="M44.1928 41.9189V43.9189H46.1928V41.9189H44.1928ZM44.1928 73.2789H46.1928V71.2789H44.1928V73.2789ZM75.5528 73.2789V71.2789H73.5528V73.2789H75.5528ZM75.5528 41.9189H73.5528V43.9189H75.5528V41.9189ZM46.1928 12.5989C46.1928 11.4943 47.0882 10.5989 48.1928 10.5989V6.59888C44.8791 6.59888 42.1928 9.28517 42.1928 12.5989H46.1928ZM46.1928 41.9189V12.5989H42.1928V41.9189H46.1928ZM14.8733 43.9189H44.1928V39.9189H14.8733V43.9189ZM12.8733 45.9189C12.8733 44.8143 13.7687 43.9189 14.8733 43.9189V39.9189C11.5596 39.9189 8.87329 42.6052 8.87329 45.9189H12.8733ZM12.8733 69.2789V45.9189H8.87329V69.2789H12.8733ZM14.8733 71.2789C13.7687 71.2789 12.8733 70.3835 12.8733 69.2789H8.87329C8.87329 72.5926 11.5596 75.2789 14.8733 75.2789V71.2789ZM44.1928 71.2789H14.8733V75.2789H44.1928V71.2789ZM46.1928 102.599V73.2789H42.1928V102.599H46.1928ZM48.1928 104.599C47.0882 104.599 46.1928 103.703 46.1928 102.599H42.1928C42.1928 105.913 44.8791 108.599 48.1928 108.599V104.599ZM71.5528 104.599H48.1928V108.599H71.5528V104.599ZM73.5528 102.599C73.5528 103.703 72.6574 104.599 71.5528 104.599V108.599C74.8665 108.599 77.5528 105.913 77.5528 102.599H73.5528ZM73.5528 73.2789V102.599H77.5528V73.2789H73.5528ZM104.873 71.2789H75.5528V75.2789H104.873V71.2789ZM106.873 69.2789C106.873 70.3835 105.978 71.2789 104.873 71.2789V75.2789C108.187 75.2789 110.873 72.5926 110.873 69.2789H106.873ZM106.873 45.9189V69.2789H110.873V45.9189H106.873ZM104.873 43.9189C105.978 43.9189 106.873 44.8143 106.873 45.9189H110.873C110.873 42.6052 108.187 39.9189 104.873 39.9189V43.9189ZM75.5528 43.9189H104.873V39.9189H75.5528V43.9189ZM73.5528 12.5989V41.9189H77.5528V12.5989H73.5528ZM71.5528 10.5989C72.6574 10.5989 73.5528 11.4943 73.5528 12.5989H77.5528C77.5528 9.28517 74.8665 6.59888 71.5528 6.59888V10.5989ZM48.1928 10.5989H71.5528V6.59888H48.1928V10.5989Z" fill="#022624" mask="url(#path-1-inside-1_1014_26958)"/>
<circle cx="86.9608" cy="39.5503" r="10.2067" transform="rotate(-45 86.9608 39.5503)" fill="#FF3399" stroke="#022624" stroke-width="2"/>
<path d="M80.3038 32.8939L93.617 46.2071" stroke="#022624" stroke-width="2" stroke-linecap="round"/>
<path d="M105.065 57.144C103.774 54.4214 104.935 51.1677 107.657 49.8766C110.38 48.5855 113.634 49.746 114.925 52.4686L117.262 57.3983L107.403 62.0737L105.065 57.144Z" fill="#FF8AC5" stroke="#022624" stroke-width="2"/>
<path d="M119.734 62.5325C121.026 65.2551 119.865 68.5089 117.142 69.7999C114.42 71.091 111.166 69.9305 109.875 67.2079L107.537 62.2782L117.397 57.6029L119.734 62.5325Z" fill="#FF54AA" stroke="#022624" stroke-width="2"/>
<path d="M100.503 73.8157C100.943 73.8157 101.299 74.1722 101.299 74.6119V74.8792C101.299 76.2759 102.432 77.4081 103.828 77.4081C104.965 77.4081 105.886 78.3295 105.886 79.466V108.498C105.886 110.155 104.543 111.498 102.886 111.498H83.3651C81.7083 111.498 80.3651 110.155 80.3651 108.498V79.466C80.3651 78.3295 81.2865 77.4081 82.423 77.4081C83.8197 77.4081 84.952 76.2759 84.952 74.8792V74.6119C84.952 74.1722 85.3084 73.8157 85.7482 73.8157H100.503Z" fill="#FF8AC5" stroke="#022624" stroke-width="2"/>
<rect x="82.0215" y="66.2847" width="22.209" height="7.18486" rx="2" fill="#FF54AA" stroke="#022624" stroke-width="2" stroke-linejoin="round"/>
<rect x="81.3447" y="84.1794" width="23.5629" height="16.9546" fill="#FF54AA"/>
</svg>
