<?xml version="1.0" encoding="utf-8"?>
<!-- Generator: Adobe Illustrator 26.0.3, SVG Export Plug-In . SVG Version: 6.00 Build 0)  -->
<svg version="1.1" id="Layer_1" xmlns="http://www.w3.org/2000/svg" xmlns:xlink="http://www.w3.org/1999/xlink" x="0px" y="0px"
	 viewBox="0 0 127.6 126" style="enable-background:new 0 0 127.6 126;" xml:space="preserve">
<style type="text/css">
	.st0{clip-path:url(#SVGID_00000173128479338998703710000005482878119191417232_);}
	.st1{fill:#FF8AC5;}
	.st2{fill:#022624;}
	.st3{fill:#FF3399;}
</style>
<g>
	<g>
		<defs>
			
				<rect id="SVGID_1_" x="73.5" y="60.7" transform="matrix(0.7071 -0.7071 0.7071 0.7071 -36.9804 92.149)" width="38.4" height="60.1"/>
		</defs>
		<clipPath id="SVGID_00000142164412594787618380000015963289325505532314_">
			<use xlink:href="#SVGID_1_"  style="overflow:visible;"/>
		</clipPath>
		<g style="clip-path:url(#SVGID_00000142164412594787618380000015963289325505532314_);">
			<g>
				<path class="st1" d="M86,109.4l0.3,0.3c3.7,3.7,16.4,11.8,27.7,0.4c11.4-11.4,1.6-22-3.6-27.3l-4.2-4.2
					c-0.1-0.1-0.2-0.1-0.2-0.2c0,0-0.1-0.1-0.1-0.1L92.5,65c-1.4-1.4-3.5-1.6-5-0.4c-1.1,0.9-1.6,2.3-1.3,3.6l-0.3,0.2l0,0
					c-1.4-1.4-3.5-1.6-5-0.4c-1.2,0.9-1.6,2.4-1.3,3.8l0.5,1l-2.4-2.4c-1.5-1.5-3.8-1.5-5.3,0c-1.4,1.4-1.4,3.8,0,5.3l1.7,1.7
					l-0.3,0.2c-1.2-0.3-2.5,0-3.4,1c-1.4,1.4-1.4,3.8,0,5.3l6,6C75,88.8,73,89,71.8,90.4c-1.3,1.5-1.1,3.7,0.3,5.1L85.5,109
					C85.7,109.1,85.8,109.3,86,109.4L86,109.4z"/>
			</g>
			<g>
				<path class="st2" d="M98.4,82c-0.3,0-0.5-0.1-0.7-0.3L85.1,69.1c-1-1-2.6-1.1-3.7-0.3c-0.8,0.7-1.2,1.7-0.9,2.8
					c0.1,0.5-0.2,1.1-0.7,1.2c-0.5,0.1-1.1-0.2-1.2-0.7c-0.5-1.8,0.2-3.7,1.6-4.8c1.9-1.5,4.6-1.3,6.4,0.5l12.5,12.5
					c0.4,0.4,0.4,1,0,1.4C98.9,81.9,98.7,82,98.4,82z"/>
			</g>
			<g>
				<path class="st2" d="M88.3,92.4c-0.3,0-0.5-0.1-0.7-0.3L71.7,76.3c-0.9-0.9-1.4-2.1-1.4-3.4c0-1.3,0.5-2.5,1.4-3.4
					s2.1-1.4,3.4-1.4c1.3,0,2.5,0.5,3.4,1.4l15.7,15.7c0.4,0.4,0.4,1,0,1.4c-0.4,0.4-1,0.4-1.4,0L76.9,71c-1.1-1.1-2.8-1.1-3.8,0
					c-1,1-1,2.8,0,3.8L89,90.7c0.4,0.4,0.4,1,0,1.4C88.8,92.3,88.6,92.4,88.3,92.4z"/>
			</g>
			<g>
				<path class="st2" d="M101.1,117c-7,0-13-4-15.5-6.6l-0.2-0.2c-0.2-0.2-0.4-0.3-0.6-0.5L71.4,96.3c-1.8-1.8-2-4.7-0.4-6.5
					c0.7-0.8,1.6-1.3,2.6-1.5l-3.8-3.8c-0.9-0.9-1.4-2.1-1.4-3.4c0-1.3,0.5-2.5,1.4-3.4c1.1-1.1,2.8-1.6,4.4-1.2
					c0.5,0.1,0.9,0.7,0.8,1.2c-0.1,0.5-0.7,0.9-1.2,0.8c-0.9-0.2-1.8,0.1-2.5,0.7c-0.5,0.5-0.8,1.2-0.8,1.9c0,0.7,0.3,1.4,0.8,1.9
					l6,6c0.4,0.4,0.4,0.9,0.1,1.3c-0.3,0.4-0.9,0.5-1.3,0.2c-1-0.6-2.4-0.6-3.4,0.5c-0.9,1.1-0.8,2.7,0.3,3.7l13.4,13.4
					c0.1,0.1,0.3,0.2,0.4,0.3c0.1,0,0.1,0.1,0.1,0.1l0.3,0.3c2,2,5.9,4.6,10.5,5.6c5.8,1.2,11.2-0.5,15.8-5.2
					c9.8-9.8,3.2-19-3.6-25.8l-4.3-4.3c0,0-0.1-0.1-0.1-0.1l0.7-0.8l-0.7,0.7L91.8,65.7c-1-1-2.6-1.2-3.7-0.3C87.4,66,87,67,87.2,68
					c0.1,0.6-0.2,1.1-0.8,1.2c-0.6,0.1-1.1-0.2-1.2-0.8c-0.3-1.7,0.3-3.5,1.7-4.6c1.9-1.5,4.6-1.3,6.4,0.5l13.4,13.4
					c0,0,0.1,0.1,0.1,0.1c0.1,0.1,0.2,0.1,0.2,0.2l4.2,4.2c4.4,4.4,16.2,16.2,3.6,28.7C110.3,115.4,105.5,117,101.1,117z"/>
			</g>
			<g>
				<path class="st2" d="M91.6,103.1c-0.1,0-0.1,0-0.2,0c-3.1-0.1-4.9-2-5-2.1l-7.2-7.2c-0.4-0.4-0.4-1,0-1.4c0.4-0.4,1-0.4,1.4,0
					l7.3,7.3c0.1,0.1,1.4,1.4,3.6,1.5c0,0,0.1,0,0.1,0c2.1,0,4.3-1.2,6.7-3.5c0,0,2.2-2.5,5.7-2.7c2.7-0.1,5.5,1.2,8.2,3.9
					c0.4,0.4,0.4,1,0,1.4c-0.4,0.4-1,0.4-1.4,0c-2.3-2.3-4.5-3.4-6.6-3.3c-2.6,0.1-4.3,2-4.3,2C97,101.7,94.2,103.1,91.6,103.1z"/>
			</g>
		</g>
	</g>
	<g>
		<path class="st3" d="M64.3,88c-0.4,0.3-0.8,0.4-1.3,0.4c-0.4,0-0.9-0.1-1.3-0.4c-0.8-0.5-19-13-25.7-25.5
			c-1.7-2.6-2.5-5.6-2.5-8.8c0-8.9,7.1-16.2,15.9-16.2c6.4,0,11.2,5.4,13.6,8.3c2.4-2.8,7.2-8.3,13.6-8.3c8.7,0,15.9,7.3,15.9,16.2
			c0,3.1-0.9,6.1-2.5,8.8C83.2,75,65,87.5,64.3,88z"/>
		<path class="st2" d="M63,89.4c-0.7,0-1.3-0.2-1.8-0.6C60.4,88.3,42,75.8,35.2,63c-1.7-2.7-2.7-5.9-2.7-9.2
			c0-9.5,7.6-17.2,16.9-17.2c6.3,0,11.1,4.9,13.6,7.7c2.5-2.9,7.3-7.7,13.6-7.7c9.3,0,16.9,7.7,16.9,17.2c0,3.3-0.9,6.5-2.7,9.3
			c-6.8,12.7-25.2,25.3-26,25.8C64.3,89.2,63.7,89.4,63,89.4z M49.4,38.6c-8.2,0-14.9,6.8-14.9,15.2c0,2.9,0.8,5.8,2.4,8.2
			c6.6,12.4,24.6,24.7,25.4,25.2c0.4,0.3,1,0.3,1.4,0c0,0,0,0,0,0C64.4,86.7,82.4,74.4,89,62c1.6-2.5,2.4-5.4,2.4-8.3
			c0-8.4-6.7-15.2-14.9-15.2c-6.1,0-10.8,5.6-12.8,7.9c-0.4,0.5-1.2,0.5-1.6,0C60.2,44.2,55.5,38.6,49.4,38.6z"/>
	</g>
</g>
<g>
	<path class="st2" d="M58.9,36.4l-3.7-3.7c1.1-0.2,2.1-0.9,2.8-1.8c1.5-2,1.4-4.8-0.5-6.6l-9-9c0-0.1-0.1-0.1-0.2-0.2
		c-0.1-0.1-0.1-0.2-0.2-0.2l-4.4-4.4C39.2,6,27-6.3,13.7,7C1.2,19.5,9.6,33.4,13.9,37.7l0.2,0.3c0.2,0.2,0.3,0.5,0.5,0.6l14,14
		c1,1,2.3,1.5,3.6,1.5c1.1,0,2.3-0.4,3.2-1.2c0.9-0.8,1.4-1.8,1.6-2.9l4.1,4.1c0.9,0.9,2.2,1.5,3.5,1.5c1.3,0,2.6-0.5,3.5-1.5
		c0.7-0.7,1.1-1.5,1.3-2.4l0.3,0.3c0.9,0.9,2.2,1.5,3.5,1.5s2.6-0.5,3.5-1.5c0.9-0.9,1.5-2.2,1.5-3.5S57.8,46,56.8,45l-0.3-0.3
		c1.1-0.2,2.1-0.8,2.8-1.8C60.9,41,60.7,38.2,58.9,36.4z M57.8,41.7c-0.7,0.9-1.9,1.3-3,1c-0.1,0-0.2,0-0.3,0L40.4,28.6
		c-0.4-0.4-1-0.4-1.4,0c-0.4,0.4-0.4,1,0,1.4l16.5,16.5c0.5,0.5,0.9,1.3,0.9,2.1c0,0.8-0.3,1.5-0.9,2.1c-1.1,1.1-3,1.1-4.1,0
		L34.7,34c-0.4-0.4-1-0.4-1.4,0c-0.4,0.4-0.4,1,0,1.4l14.3,14.3c0,0.1,0,0.2,0,0.3c0.2,1-0.1,2-0.8,2.7c-1.1,1.1-3,1.1-4.1,0l-19-19
		c-0.4-0.4-1-0.4-1.4,0c-0.4,0.4-0.4,1,0,1.4L35.1,48c0,0.1,0,0.3,0,0.4c0.3,1.1-0.1,2.2-0.9,2.9c-1.1,1-2.9,0.9-4-0.2l-14-14
		c-0.1-0.1-0.2-0.3-0.3-0.4c0,0-0.1-0.1-0.1-0.1l-0.3-0.3c-3.9-3.9-11.5-16.5-0.2-27.8C25.7-2.1,35.2,4.8,42.4,12l4.4,4.4l0.3,0.3
		l0.1,0.1l9,9c1.1,1.1,1.2,2.8,0.3,3.9c-0.7,0.9-1.8,1.3-2.8,1.1c-0.1,0-0.2,0-0.4,0l-7.4-7.4c-0.4-0.4-1-0.4-1.4,0
		c-0.4,0.4-0.4,1,0,1.4l13.1,13.1C58.6,38.9,58.7,40.6,57.8,41.7z"/>
</g>
<g>
	<path class="st1" d="M57.8,41.7c-0.7,0.9-1.9,1.3-3,1c-0.1,0-0.2,0-0.3,0L40.4,28.6c-0.4-0.4-1-0.4-1.4,0c-0.4,0.4-0.4,1,0,1.4
		l16.5,16.5c0.5,0.5,0.9,1.3,0.9,2.1c0,0.8-0.3,1.5-0.9,2.1c-1.1,1.1-3,1.1-4.1,0L34.7,34c-0.4-0.4-1-0.4-1.4,0
		c-0.4,0.4-0.4,1,0,1.4l14.3,14.3c0,0.1,0,0.2,0,0.3c0.2,1-0.1,2-0.8,2.7c-1.1,1.1-3,1.1-4.1,0l-19-19c-0.4-0.4-1-0.4-1.4,0
		c-0.4,0.4-0.4,1,0,1.4L35.1,48c0,0.1,0,0.3,0,0.4c0.3,1.1-0.1,2.2-0.9,2.9c-1.1,1-2.9,0.9-4-0.2l-14-14c-0.1-0.1-0.2-0.3-0.3-0.4
		c0,0-0.1-0.1-0.1-0.1l-0.3-0.3c-3.9-3.9-11.5-16.5-0.2-27.8C25.7-2.1,35.2,4.8,42.4,12l4.4,4.4l0.3,0.3l0.1,0.1l9,9
		c1.1,1.1,1.2,2.8,0.3,3.9c-0.7,0.9-1.8,1.3-2.8,1.1c-0.1,0-0.2,0-0.4,0l-7.4-7.4c-0.4-0.4-1-0.4-1.4,0c-0.4,0.4-0.4,1,0,1.4
		l13.1,13.1C58.6,38.9,58.7,40.6,57.8,41.7z"/>
</g>
</svg>
