<svg width="127" height="126" viewBox="0 0 127 126" fill="none" xmlns="http://www.w3.org/2000/svg">
<path d="M6.80078 29.3788C6.80078 28.6024 7.3667 27.9417 8.13398 27.8225L15.8066 26.6305C28.6258 24.6388 41.6757 24.6388 54.495 26.6305L63.5008 28.0297V110.25L54.495 108.851C41.6757 106.859 28.6258 106.859 15.8066 108.851L8.61758 109.968C7.6628 110.116 6.80078 109.378 6.80078 108.411V29.3788Z" fill="#FF3399" stroke="#022624" stroke-width="2" stroke-linejoin="round"/>
<path d="M63.5 28.0297L72.5058 26.6305C85.325 24.6388 98.375 24.6388 111.194 26.6305L118.867 27.8225C119.634 27.9417 120.2 28.6024 120.2 29.3789V108.411C120.2 109.378 119.338 110.116 118.383 109.968L111.194 108.851C98.375 106.859 85.325 106.859 72.5058 108.851L63.5 110.25V28.0297Z" fill="#FF3399" stroke="#022624" stroke-width="2" stroke-linejoin="round"/>
<path d="M13.0996 14.8485C13.0996 14.4598 13.3812 14.128 13.7646 14.0641C31.3853 11.1273 49.453 15.7383 63.4996 26.775V113.431C63.4996 114.057 62.7777 114.408 62.2852 114.021C49.0122 103.592 31.9628 99.2311 15.3125 102.006L14.017 102.222C13.5368 102.302 13.0996 101.932 13.0996 101.445V14.8485Z" fill="#FF8AC5" stroke="#022624" stroke-width="2.03175" stroke-linejoin="round"/>
<path d="M63.5 26.775C77.5466 15.7383 95.6143 11.1273 113.235 14.0641C113.618 14.128 113.9 14.4598 113.9 14.8485V101.445C113.9 101.932 113.463 102.302 112.983 102.222L111.687 102.006C95.0368 99.2311 77.9874 103.592 64.7144 114.021C64.2219 114.408 63.5 114.057 63.5 113.431V26.775Z" fill="#FF8AC5" stroke="#022624" stroke-width="2.03175" stroke-linejoin="round"/>
<path d="M94.0253 61.9837C94.5921 62.5523 94.5921 63.4477 94.0253 64.0163C90.5527 67.5007 78.2027 78.75 63.5 78.75C48.7973 78.75 36.4474 67.5007 32.9747 64.0163C32.4079 63.4477 32.4079 62.5523 32.9747 61.9837C36.4473 58.4993 48.7973 47.25 63.5 47.25C78.2027 47.25 90.5526 58.4993 94.0253 61.9837Z" fill="#FF3399" stroke="#022624" stroke-width="2.03175"/>
<circle cx="63.5008" cy="63" r="9.45" fill="#FFB0D8"/>
<circle cx="63.4992" cy="63" r="6.3" fill="#FF3399"/>
<circle cx="67.4367" cy="59.0625" r="2.3625" fill="#FFB0D8"/>
</svg>
