<svg width="127" height="126" viewBox="0 0 127 126" fill="none" xmlns="http://www.w3.org/2000/svg">
<path d="M59 13H96C102.904 13 108.5 18.5964 108.5 25.5V25.5C108.5 32.4036 102.904 38 96 38H31C24.0964 38 18.5 43.5964 18.5 50.5V50.5C18.5 57.4036 24.0964 63 31 63H96C102.904 63 108.5 68.5964 108.5 75.5V75.5C108.5 82.4036 102.904 88 96 88H31C24.0964 88 18.5 93.5964 18.5 100.5V100.5C18.5 107.404 24.0964 113 31 113H61.5C62.6046 113 63.5 112.105 63.5 111V103.47" stroke="#FF8AC5" stroke-width="4" stroke-linecap="round"/>
<circle cx="55.8584" cy="13" r="7.63281" fill="#FF3399" stroke="#022624" stroke-width="2"/>
<rect x="43.5" y="39.1774" width="40" height="56" rx="4" fill="#FF8AC5" stroke="#022624" stroke-width="2"/>
<path d="M44.4767 56.9369C44.4767 54.7302 47.2944 53.8048 48.6027 55.5818C49.4931 56.7912 51.2881 56.8277 52.227 55.6555L53.6376 53.8942C55.2464 51.8856 58.3022 51.8856 59.9109 53.8942L59.978 53.9779C61.6211 56.0295 64.7422 56.0295 66.3854 53.9779C68.0285 51.9264 71.1496 51.9264 72.7927 53.9779L74.0358 55.5299C75.0468 56.7922 76.9627 56.8057 77.9914 55.5578C79.5119 53.7133 82.5064 54.7884 82.5064 57.1788V91.2763C82.5064 92.9132 81.1772 94.2389 79.5403 94.2345L47.1918 94.1472C45.6911 94.1431 44.4767 92.9254 44.4767 91.4247V56.9369Z" fill="#FF54AA"/>
<path d="M66.6992 49.1774H82.6992" stroke="#022624" stroke-width="2" stroke-linecap="round"/>
<path d="M66.6992 73.1774H82.6992" stroke="#022624" stroke-width="2" stroke-linecap="round"/>
<path d="M72.6992 61.1774H82.6992" stroke="#022624" stroke-width="2" stroke-linecap="round"/>
<path d="M72.6992 85.1774H82.6992" stroke="#022624" stroke-width="2" stroke-linecap="round"/>
<path d="M55.5 95.1774H71.5V99.1774C71.5 101.387 69.7091 103.177 67.5 103.177H59.5C57.2909 103.177 55.5 101.387 55.5 99.1774V95.1774Z" fill="#FF54AA" stroke="#022624" stroke-width="2"/>
</svg>
