<svg width="262" height="176" viewBox="0 0 262 176" fill="none" xmlns="http://www.w3.org/2000/svg">
<g clip-path="url(#clip0_5059_5357)">
<path d="M261.8 93.5209C261.8 128.987 239.321 159.206 207.835 170.704C203.046 172.457 198.101 173.755 193.068 174.58C179.222 176.851 165.025 175.562 151.814 170.834C120.129 159.43 97.4858 129.109 97.5007 93.5035C97.5007 48.1518 134.281 11.3712 179.65 11.3712C196.797 11.3462 213.517 16.7105 227.449 26.7058C248.248 41.6073 261.8 65.9808 261.8 93.5209Z" fill="#055B56"/>
<path d="M207.835 170.704C203.045 172.457 198.101 173.754 193.068 174.58C179.221 176.851 165.025 175.562 151.814 170.833L155.608 155.611L155.837 154.697L163.579 154.727L202.473 154.867L202.971 156.338L207.835 170.704Z" fill="#111927"/>
<path d="M71.5584 0.330078H0.199951V81.0745H71.5584V0.330078Z" fill="#B2CFCD"/>
<path d="M70.1615 2.03711H1.47241V79.3654H70.1615V2.03711Z" fill="white"/>
<path d="M35.8794 76.6167C38.0059 76.6167 39.7297 74.8928 39.7297 72.7664C39.7297 70.6399 38.0059 68.916 35.8794 68.916C33.7529 68.916 32.0291 70.6399 32.0291 72.7664C32.0291 74.8928 33.7529 76.6167 35.8794 76.6167Z" fill="#E5E7EB"/>
<path d="M35.229 29.4102H13.114V31.6725H35.229V29.4102Z" fill="#E5E7EB"/>
<path d="M46.4914 36.1895H13.114V38.4518H46.4914V36.1895Z" fill="#FF8AC6"/>
<path d="M43.2152 43.0117H13.114V45.2741H43.2152V43.0117Z" fill="#E5E7EB"/>
<path d="M59.5966 49.6543H13.114V51.9166H59.5966V49.6543Z" fill="#FF8AC6"/>
<path d="M51.4794 55.9785H13.5972V58.2409H51.4794V55.9785Z" fill="#E5E7EB"/>
<path d="M101.67 131.717C101.941 131.995 102.19 132.295 102.414 132.613L137.293 131.76L141.362 124.324L153.385 128.998L147.461 142.861C146.982 143.981 146.153 144.915 145.098 145.524C144.043 146.133 142.82 146.383 141.611 146.237L102.204 141.476C101.274 142.653 100.008 143.519 98.5746 143.959C97.1409 144.399 95.6073 144.392 94.1778 143.939C92.7482 143.486 91.4905 142.608 90.5718 141.423C89.6531 140.237 89.1171 138.801 89.035 137.303C88.9529 135.806 89.3286 134.319 90.1122 133.04C90.8957 131.762 92.05 130.752 93.4215 130.145C94.7929 129.539 96.3166 129.364 97.7897 129.644C99.2629 129.925 100.616 130.647 101.668 131.715L101.67 131.717Z" fill="#FFB8B8"/>
<path d="M148.615 89.2601L164.937 83.9106L169.731 77.3359L193.061 78.7165L196.486 86.3888L208.926 92.267L207.014 127.772L203.743 160.999C186.926 152.291 155.539 158.93 155.264 159.038L148.615 89.2601Z" fill="#E5E7EB"/>
<path d="M152.104 137.318L135.501 130.675L135.572 130.38C135.643 130.081 142.709 100.553 143.647 95.8073C144.625 90.8637 148.196 89.4967 148.347 89.4412L148.458 89.4004L155.029 91.4004L157.914 114.074L152.104 137.318Z" fill="#E5E7EB"/>
<path d="M187.952 159.538C188.342 159.529 188.731 159.55 189.117 159.602L212.205 133.446L209.519 125.408L221.122 119.77L227.259 133.539C227.755 134.651 227.877 135.895 227.606 137.082C227.335 138.269 226.687 139.337 225.757 140.124L195.474 165.783C195.705 167.265 195.479 168.782 194.827 170.132C194.174 171.482 193.126 172.602 191.822 173.342C190.518 174.082 189.019 174.408 187.525 174.275C186.032 174.143 184.614 173.559 183.46 172.601C182.306 171.643 181.471 170.356 181.067 168.913C180.662 167.469 180.706 165.936 181.194 164.518C181.682 163.1 182.589 161.864 183.797 160.974C185.004 160.085 186.453 159.584 187.952 159.538Z" fill="#FFB8B8"/>
<path d="M210.362 135.992L200.731 113.338L204.487 97.557L208.535 92.4436C208.831 92.3168 209.151 92.253 209.473 92.256C209.795 92.259 210.114 92.3288 210.408 92.461C211.901 93.0617 213.171 94.9031 214.186 97.9337L223.212 123.644L210.362 135.992Z" fill="#E5E7EB"/>
<path d="M160.393 68.9408V51.8612C160.383 48.8556 160.965 45.8776 162.106 43.097C163.247 40.3164 164.924 37.7878 167.042 35.6556C169.161 33.5233 171.678 31.8291 174.451 30.6697C177.224 29.5104 180.198 28.9085 183.204 28.8986C186.209 28.8886 189.187 29.4707 191.968 30.6117C194.748 31.7527 197.277 33.4301 199.409 35.5483C201.542 37.6665 203.236 40.184 204.395 42.9569C205.554 45.7298 206.156 48.704 206.166 51.7095C206.166 51.7601 206.166 51.8106 206.166 51.8612V68.9408C206.165 69.7559 205.841 70.5374 205.265 71.1137C204.688 71.6901 203.907 72.0143 203.092 72.0152H163.467C162.652 72.0143 161.871 71.6901 161.294 71.1137C160.718 70.5374 160.394 69.7559 160.393 68.9408Z" fill="#111927"/>
<path d="M178.577 71.618C187.844 71.618 195.356 64.1055 195.356 54.8383C195.356 45.5711 187.844 38.0586 178.577 38.0586C169.309 38.0586 161.797 45.5711 161.797 54.8383C161.797 64.1055 169.309 71.618 178.577 71.618Z" fill="#FFB8B8"/>
<path d="M154.978 53.2276C154.984 48.4276 156.893 43.8258 160.287 40.4317C163.681 37.0376 168.283 35.1284 173.083 35.123H176.499C181.299 35.1284 185.901 37.0376 189.295 40.4317C192.689 43.8258 194.598 48.4277 194.603 53.2276V53.5691H187.384L184.922 46.6735L184.429 53.5691H180.699L179.457 50.0905L179.208 53.5691H154.978V53.2276Z" fill="#111927"/>
<path d="M176.925 73.9357C176.586 73.4768 176.384 72.9314 176.341 72.3625C176.299 71.7936 176.418 71.2242 176.685 70.7199C180.304 63.8348 185.373 51.1123 178.646 43.2662L178.163 42.7031H197.694V72.0256L179.952 75.156C179.772 75.1878 179.59 75.2039 179.408 75.204C178.923 75.2041 178.446 75.0892 178.015 74.8688C177.583 74.6484 177.21 74.3289 176.927 73.9364L176.925 73.9357Z" fill="#111927"/>
<path d="M35.8174 6.61914C34.198 6.61906 32.6149 7.09918 31.2684 7.9988C29.9219 8.89842 28.8724 10.1771 28.2526 11.6732C27.6328 13.1693 27.4706 14.8156 27.7864 16.4039C28.1022 17.9922 28.882 19.4512 30.027 20.5963C31.172 21.7415 32.6309 22.5213 34.2192 22.8374C35.8075 23.1534 37.4538 22.9913 38.9499 22.3717C40.4461 21.752 41.7249 20.7026 42.6246 19.3562C43.5244 18.0098 44.0047 16.4268 44.0048 14.8074V14.807C44.0048 13.7317 43.793 12.667 43.3815 11.6736C42.97 10.6802 42.3669 9.7776 41.6066 9.0173C40.8463 8.25699 39.9437 7.65387 38.9503 7.2424C37.9569 6.83092 36.8922 6.61914 35.817 6.61914H35.8174ZM35.8174 9.07526C36.3032 9.07526 36.778 9.21931 37.1819 9.48919C37.5858 9.75907 37.9007 10.1427 38.0866 10.5915C38.2725 11.0403 38.3211 11.5341 38.2263 12.0105C38.1316 12.487 37.8976 12.9246 37.5541 13.2681C37.2107 13.6116 36.773 13.8455 36.2966 13.9403C35.8201 14.0351 35.3263 13.9865 34.8775 13.8006C34.4287 13.6147 34.0451 13.2999 33.7752 12.8959C33.5053 12.492 33.3613 12.0172 33.3613 11.5314C33.3613 10.88 33.62 10.2553 34.0806 9.79465C34.5413 9.33404 35.166 9.07527 35.8174 9.07526ZM35.8174 20.9002C34.847 20.8957 33.8924 20.6546 33.0363 20.1977C32.1802 19.7409 31.4485 19.082 30.9047 18.2784C30.9441 16.6408 34.1798 15.7394 35.8174 15.7394C37.4549 15.7394 40.6906 16.6408 40.7301 18.2784C40.1856 19.0815 39.4538 19.7398 38.5979 20.1966C37.7419 20.6534 36.7876 20.8949 35.8174 20.9002Z" fill="#FF8AC6"/>
<path d="M35.9124 74.243C39.2855 68.0616 47.3661 64.147 53.9761 67.6755C56.9515 69.2634 59.3166 72.0725 60.0674 75.3926C60.9387 79.2494 59.1028 82.9269 57.2076 86.1671C56.179 87.9259 55.0518 89.6488 54.2004 91.5039C53.3189 93.4249 52.6889 95.6452 53.3526 97.735C53.95 99.6178 55.4481 100.987 57.0886 101.994C58.8992 103.062 60.8251 103.923 62.8294 104.558C66.9551 105.93 71.3069 106.493 75.646 106.216C77.8025 106.069 79.9409 105.724 82.0338 105.183C84.26 104.616 86.4447 103.896 88.6747 103.341C92.3978 102.416 96.643 101.957 100.173 103.814C103.603 105.619 105.138 109.395 105.613 113.068C106.49 119.851 103.8 126.889 98.9449 131.639C96.6153 133.918 93.6838 135.8 90.4909 136.571C87.7051 137.243 84.1278 137.2 81.9108 135.117C79.4368 132.793 80.0188 129.066 81.9837 126.613C84.4918 123.484 88.7407 122.733 92.5322 122.657C96.8453 122.57 101.154 123.212 105.465 122.813C107.569 122.649 109.634 122.151 111.581 121.338C113.293 120.585 114.855 119.528 116.19 118.219C118.851 115.633 120.646 112.189 121.539 108.608C122.613 104.301 122.379 99.7751 121.545 95.4493C121.1 93.2187 120.528 91.0155 119.83 88.8507C119.542 87.9371 118.099 88.3279 118.39 89.2477C120.959 97.394 122.391 106.814 117.428 114.377C115.374 117.585 112.174 119.888 108.48 120.818C104.184 121.886 99.6763 121.358 95.3089 121.199C91.1561 121.048 86.5961 121.211 83.0362 123.63C80.1159 125.613 78.0734 129.387 78.9561 132.949C79.8073 136.384 83.1087 138.127 86.4106 138.395C89.8751 138.678 93.2843 137.515 96.1939 135.697C102.246 131.915 106.271 125.263 107.113 118.211C107.552 114.536 107.105 110.578 105.439 107.243C104.561 105.437 103.194 103.914 101.494 102.846C99.7985 101.807 97.8404 101.295 95.8737 101.114C91.4058 100.703 87.1131 102.237 82.8747 103.41C80.7095 104.038 78.4902 104.462 76.2459 104.676C74.0677 104.856 71.877 104.82 69.7058 104.569C67.5514 104.315 65.4282 103.844 63.3686 103.163C61.3503 102.539 59.4178 101.665 57.6161 100.562C56.0267 99.5456 54.652 98.0898 54.5738 96.106C54.489 93.9549 55.5736 91.9427 56.6052 90.1292C58.6432 86.5467 61.1608 83.0427 61.6922 78.8488C62.1578 75.1802 60.6815 71.5644 58.1324 68.9478C56.8549 67.6197 55.3168 66.5697 53.6147 65.8635C51.9125 65.1574 50.0829 64.8103 48.2403 64.844C44.4582 64.9523 40.8369 66.5971 38.055 69.123C36.6753 70.3766 35.5143 71.8515 34.6197 73.4869C34.1589 74.3311 35.4481 75.0856 35.9094 74.2407L35.9124 74.243Z" fill="#8CB9B6"/>
</g>
<defs>
<clipPath id="clip0_5059_5357">
<rect width="261.6" height="175.341" fill="white" transform="translate(0.199951 0.330078)"/>
</clipPath>
</defs>
</svg>
